<mxfile host="app.diagrams.net" modified="2021-10-14T14:20:38.955Z" agent="5.0 (Windows NT 10.0; Win64; x64) AppleWebKit/537.36 (KHTML, like Gecko) Chrome/94.0.4606.81 Safari/537.36" etag="i7uUuDkn9cgS_PuAUqZY" version="15.5.2" type="github">
  <diagram id="C5RBs43oDa-KdzZeNtuy" name="Page-1">
    <mxGraphModel dx="7070" dy="1323" grid="1" gridSize="10" guides="1" tooltips="1" connect="1" arrows="1" fold="1" page="1" pageScale="1" pageWidth="4700" pageHeight="1500" math="0" shadow="0">
      <root>
        <mxCell id="WIyWlLk6GJQsqaUBKTNV-0" />
        <mxCell id="WIyWlLk6GJQsqaUBKTNV-1" parent="WIyWlLk6GJQsqaUBKTNV-0" />
        <mxCell id="idtFsPLVlB8KMN15-Iu1-218" style="edgeStyle=orthogonalEdgeStyle;orthogonalLoop=1;jettySize=auto;html=1;dashed=1;endArrow=open;endFill=0;exitX=-0.007;exitY=0.383;exitDx=0;exitDy=0;exitPerimeter=0;startArrow=none;entryX=0.696;entryY=1.018;entryDx=0;entryDy=0;entryPerimeter=0;" parent="WIyWlLk6GJQsqaUBKTNV-1" source="idtFsPLVlB8KMN15-Iu1-53" target="IsPKWjWjbbhWOZvx0KAc-56" edge="1">
          <mxGeometry relative="1" as="geometry">
            <Array as="points">
              <mxPoint x="-2603" y="1239" />
            </Array>
            <mxPoint x="-2569" y="650" as="targetPoint" />
          </mxGeometry>
        </mxCell>
        <mxCell id="7ZvF9bT9IcwRX-JwGskH-4" value="+Campaign" style="swimlane;fontStyle=1;align=center;verticalAlign=top;childLayout=stackLayout;horizontal=1;startSize=26;horizontalStack=0;resizeParent=1;resizeParentMax=0;resizeLast=0;collapsible=1;marginBottom=0;labelBackgroundColor=default;" parent="WIyWlLk6GJQsqaUBKTNV-1" vertex="1">
          <mxGeometry x="-4635" y="672" width="160" height="196" as="geometry">
            <mxRectangle x="10" y="382" width="90" height="26" as="alternateBounds" />
          </mxGeometry>
        </mxCell>
        <mxCell id="7ZvF9bT9IcwRX-JwGskH-5" value="- nccCampaignId : String&#xa;- campaignTp : String&#xa;- customerId : Long&#xa;- name : String&#xa;- userLock : Boolean&#xa;- deliveryMethod : String&#xa;- useDailyBudget : Boolean&#xa;- dailyBudget : Long&#xa;- usePeriod : Boolean&#xa;- periodStartDt : Date&#xa;- periodEndDt : Date" style="text;strokeColor=none;fillColor=none;align=left;verticalAlign=top;spacingLeft=4;spacingRight=4;overflow=hidden;rotatable=0;points=[[0,0.5],[1,0.5]];portConstraint=eastwest;labelBackgroundColor=default;" parent="7ZvF9bT9IcwRX-JwGskH-4" vertex="1">
          <mxGeometry y="26" width="160" height="162" as="geometry" />
        </mxCell>
        <mxCell id="7ZvF9bT9IcwRX-JwGskH-6" value="" style="line;strokeWidth=1;fillColor=none;align=left;verticalAlign=middle;spacingTop=-1;spacingLeft=3;spacingRight=3;rotatable=0;labelPosition=right;points=[];portConstraint=eastwest;labelBackgroundColor=default;" parent="7ZvF9bT9IcwRX-JwGskH-4" vertex="1">
          <mxGeometry y="188" width="160" height="8" as="geometry" />
        </mxCell>
        <mxCell id="7ZvF9bT9IcwRX-JwGskH-8" value="+Ad" style="swimlane;fontStyle=1;align=center;verticalAlign=top;childLayout=stackLayout;horizontal=1;startSize=26;horizontalStack=0;resizeParent=1;resizeParentMax=0;resizeLast=0;collapsible=1;marginBottom=0;labelBackgroundColor=default;" parent="WIyWlLk6GJQsqaUBKTNV-1" vertex="1">
          <mxGeometry x="-4439" y="423.28" width="170" height="146" as="geometry">
            <mxRectangle x="120" y="322" width="50" height="26" as="alternateBounds" />
          </mxGeometry>
        </mxCell>
        <mxCell id="7ZvF9bT9IcwRX-JwGskH-9" value="- nccAdId : String&#xa;- nccAdgroupId : String&#xa;- customerId : Long&#xa;- inspectStatus : InspectStatus&#xa;- type : String&#xa;- ad : Map&lt;String, Object&gt;&#xa;- userLock : Boolean&#xa;- inspectRequestMsg : String&#xa;" style="text;strokeColor=none;fillColor=none;align=left;verticalAlign=top;spacingLeft=4;spacingRight=4;overflow=hidden;rotatable=0;points=[[0,0.5],[1,0.5]];portConstraint=eastwest;labelBackgroundColor=default;" parent="7ZvF9bT9IcwRX-JwGskH-8" vertex="1">
          <mxGeometry y="26" width="170" height="112" as="geometry" />
        </mxCell>
        <mxCell id="7ZvF9bT9IcwRX-JwGskH-10" value="" style="line;strokeWidth=1;fillColor=none;align=left;verticalAlign=middle;spacingTop=-1;spacingLeft=3;spacingRight=3;rotatable=0;labelPosition=right;points=[];portConstraint=eastwest;labelBackgroundColor=default;" parent="7ZvF9bT9IcwRX-JwGskH-8" vertex="1">
          <mxGeometry y="138" width="170" height="8" as="geometry" />
        </mxCell>
        <mxCell id="idtFsPLVlB8KMN15-Iu1-139" style="edgeStyle=orthogonalEdgeStyle;orthogonalLoop=1;jettySize=auto;html=1;dashed=1;fontSize=11;verticalAlign=middle;entryX=0.5;entryY=1;entryDx=0;entryDy=0;endFill=0;endArrow=open;" parent="WIyWlLk6GJQsqaUBKTNV-1" source="-4e21ovLT8-M-5KT2Jtu-23" target="-4e21ovLT8-M-5KT2Jtu-39" edge="1">
          <mxGeometry relative="1" as="geometry">
            <mxPoint x="-899" y="690" as="targetPoint" />
            <Array as="points">
              <mxPoint x="-179" y="892" />
              <mxPoint x="-249" y="892" />
            </Array>
          </mxGeometry>
        </mxCell>
        <mxCell id="idtFsPLVlB8KMN15-Iu1-140" style="edgeStyle=orthogonalEdgeStyle;orthogonalLoop=1;jettySize=auto;html=1;dashed=1;fontSize=11;verticalAlign=middle;endArrow=open;endFill=0;" parent="WIyWlLk6GJQsqaUBKTNV-1" source="-4e21ovLT8-M-5KT2Jtu-23" target="idtFsPLVlB8KMN15-Iu1-10" edge="1">
          <mxGeometry relative="1" as="geometry">
            <mxPoint x="-399" y="850" as="targetPoint" />
            <mxPoint x="-399" y="1302" as="sourcePoint" />
            <Array as="points">
              <mxPoint x="-249" y="932" />
              <mxPoint x="-459" y="932" />
            </Array>
          </mxGeometry>
        </mxCell>
        <mxCell id="idtFsPLVlB8KMN15-Iu1-143" style="edgeStyle=orthogonalEdgeStyle;orthogonalLoop=1;jettySize=auto;html=1;dashed=1;fontSize=11;verticalAlign=middle;endFill=0;endArrow=open;" parent="WIyWlLk6GJQsqaUBKTNV-1" source="-4e21ovLT8-M-5KT2Jtu-23" target="-4e21ovLT8-M-5KT2Jtu-35" edge="1">
          <mxGeometry relative="1" as="geometry">
            <Array as="points">
              <mxPoint x="-119" y="852" />
              <mxPoint x="-84" y="852" />
            </Array>
          </mxGeometry>
        </mxCell>
        <mxCell id="idtFsPLVlB8KMN15-Iu1-145" style="edgeStyle=orthogonalEdgeStyle;orthogonalLoop=1;jettySize=auto;html=1;dashed=1;fontSize=11;verticalAlign=middle;endFill=0;endArrow=open;" parent="WIyWlLk6GJQsqaUBKTNV-1" source="-4e21ovLT8-M-5KT2Jtu-23" target="idtFsPLVlB8KMN15-Iu1-19" edge="1">
          <mxGeometry relative="1" as="geometry">
            <mxPoint x="-1619" y="680" as="targetPoint" />
            <Array as="points">
              <mxPoint x="-509" y="1092" />
              <mxPoint x="-1419" y="1092" />
            </Array>
          </mxGeometry>
        </mxCell>
        <mxCell id="idtFsPLVlB8KMN15-Iu1-146" style="edgeStyle=orthogonalEdgeStyle;orthogonalLoop=1;jettySize=auto;html=1;dashed=1;fontSize=11;verticalAlign=middle;endFill=0;endArrow=open;" parent="WIyWlLk6GJQsqaUBKTNV-1" source="-4e21ovLT8-M-5KT2Jtu-23" target="-4e21ovLT8-M-5KT2Jtu-51" edge="1">
          <mxGeometry relative="1" as="geometry">
            <Array as="points">
              <mxPoint x="-319" y="972" />
              <mxPoint x="-709" y="972" />
            </Array>
          </mxGeometry>
        </mxCell>
        <mxCell id="idtFsPLVlB8KMN15-Iu1-147" style="edgeStyle=orthogonalEdgeStyle;orthogonalLoop=1;jettySize=auto;html=1;dashed=1;fontSize=11;verticalAlign=middle;endFill=0;endArrow=open;" parent="WIyWlLk6GJQsqaUBKTNV-1" source="-4e21ovLT8-M-5KT2Jtu-23" target="idtFsPLVlB8KMN15-Iu1-7" edge="1">
          <mxGeometry relative="1" as="geometry">
            <mxPoint x="-1889" y="680" as="targetPoint" />
            <mxPoint x="-919" y="1430" as="sourcePoint" />
            <Array as="points">
              <mxPoint x="-379" y="1012" />
              <mxPoint x="-919" y="1012" />
            </Array>
          </mxGeometry>
        </mxCell>
        <mxCell id="idtFsPLVlB8KMN15-Iu1-148" style="edgeStyle=orthogonalEdgeStyle;orthogonalLoop=1;jettySize=auto;html=1;dashed=1;fontSize=11;verticalAlign=middle;endFill=0;endArrow=open;exitX=0.832;exitY=0.006;exitDx=0;exitDy=0;exitPerimeter=0;entryX=0.785;entryY=1.026;entryDx=0;entryDy=0;entryPerimeter=0;" parent="WIyWlLk6GJQsqaUBKTNV-1" source="-4e21ovLT8-M-5KT2Jtu-23" target="IsPKWjWjbbhWOZvx0KAc-56" edge="1">
          <mxGeometry relative="1" as="geometry">
            <mxPoint x="-2639" y="642" as="targetPoint" />
            <Array as="points">
              <mxPoint x="-653" y="1142" />
              <mxPoint x="-2580" y="1142" />
            </Array>
          </mxGeometry>
        </mxCell>
        <mxCell id="-4e21ovLT8-M-5KT2Jtu-31" value="+PropertiesLoader" style="swimlane;fontStyle=1;align=center;verticalAlign=top;childLayout=stackLayout;horizontal=1;startSize=26;horizontalStack=0;resizeParent=1;resizeParentMax=0;resizeLast=0;collapsible=1;marginBottom=0;" parent="WIyWlLk6GJQsqaUBKTNV-1" vertex="1">
          <mxGeometry x="-4039" y="1146" width="190" height="74" as="geometry">
            <mxRectangle x="1896" y="606" width="140" height="26" as="alternateBounds" />
          </mxGeometry>
        </mxCell>
        <mxCell id="-4e21ovLT8-M-5KT2Jtu-33" value="" style="line;strokeWidth=1;fillColor=none;align=left;verticalAlign=middle;spacingTop=-1;spacingLeft=3;spacingRight=3;rotatable=0;labelPosition=right;points=[];portConstraint=eastwest;" parent="-4e21ovLT8-M-5KT2Jtu-31" vertex="1">
          <mxGeometry y="26" width="190" height="8" as="geometry" />
        </mxCell>
        <mxCell id="-4e21ovLT8-M-5KT2Jtu-34" value="-classLoader() ClassLoader&#xa;+fromResourse(String) Properties" style="text;strokeColor=none;fillColor=none;align=left;verticalAlign=top;spacingLeft=4;spacingRight=4;overflow=hidden;rotatable=0;points=[[0,0.5],[1,0.5]];portConstraint=eastwest;" parent="-4e21ovLT8-M-5KT2Jtu-31" vertex="1">
          <mxGeometry y="34" width="190" height="40" as="geometry" />
        </mxCell>
        <mxCell id="-4e21ovLT8-M-5KT2Jtu-35" value="+IDType" style="swimlane;fontStyle=1;align=center;verticalAlign=top;childLayout=stackLayout;horizontal=1;startSize=26;horizontalStack=0;resizeParent=1;resizeParentMax=0;resizeLast=0;collapsible=1;marginBottom=0;arcSize=7;" parent="WIyWlLk6GJQsqaUBKTNV-1" vertex="1">
          <mxGeometry x="-129" y="730" width="90" height="86" as="geometry" />
        </mxCell>
        <mxCell id="-4e21ovLT8-M-5KT2Jtu-36" value="+id&#xa;+keyboard" style="text;strokeColor=none;fillColor=none;align=left;verticalAlign=top;spacingLeft=4;spacingRight=4;overflow=hidden;rotatable=0;points=[[0,0.5],[1,0.5]];portConstraint=eastwest;" parent="-4e21ovLT8-M-5KT2Jtu-35" vertex="1">
          <mxGeometry y="26" width="90" height="52" as="geometry" />
        </mxCell>
        <mxCell id="-4e21ovLT8-M-5KT2Jtu-37" value="" style="line;strokeWidth=1;fillColor=none;align=left;verticalAlign=middle;spacingTop=-1;spacingLeft=3;spacingRight=3;rotatable=0;labelPosition=right;points=[];portConstraint=eastwest;" parent="-4e21ovLT8-M-5KT2Jtu-35" vertex="1">
          <mxGeometry y="78" width="90" height="8" as="geometry" />
        </mxCell>
        <mxCell id="-4e21ovLT8-M-5KT2Jtu-39" value="+RequestPerformanceBulk" style="swimlane;fontStyle=1;align=center;verticalAlign=top;childLayout=stackLayout;horizontal=1;startSize=26;horizontalStack=0;resizeParent=1;resizeParentMax=0;resizeLast=0;collapsible=1;marginBottom=0;" parent="WIyWlLk6GJQsqaUBKTNV-1" vertex="1">
          <mxGeometry x="-339" y="730" width="180" height="60" as="geometry" />
        </mxCell>
        <mxCell id="-4e21ovLT8-M-5KT2Jtu-40" value="-items List&lt;Bulkitem&gt;" style="text;strokeColor=none;fillColor=none;align=left;verticalAlign=top;spacingLeft=4;spacingRight=4;overflow=hidden;rotatable=0;points=[[0,0.5],[1,0.5]];portConstraint=eastwest;" parent="-4e21ovLT8-M-5KT2Jtu-39" vertex="1">
          <mxGeometry y="26" width="180" height="26" as="geometry" />
        </mxCell>
        <mxCell id="-4e21ovLT8-M-5KT2Jtu-41" value="" style="line;strokeWidth=1;fillColor=none;align=left;verticalAlign=middle;spacingTop=-1;spacingLeft=3;spacingRight=3;rotatable=0;labelPosition=right;points=[];portConstraint=eastwest;" parent="-4e21ovLT8-M-5KT2Jtu-39" vertex="1">
          <mxGeometry y="52" width="180" height="8" as="geometry" />
        </mxCell>
        <mxCell id="idtFsPLVlB8KMN15-Iu1-217" style="edgeStyle=orthogonalEdgeStyle;orthogonalLoop=1;jettySize=auto;html=1;dashed=1;endArrow=open;endFill=0;exitX=0.506;exitY=1.034;exitDx=0;exitDy=0;entryX=0.542;entryY=-0.029;entryDx=0;entryDy=0;exitPerimeter=0;entryPerimeter=0;" parent="WIyWlLk6GJQsqaUBKTNV-1" edge="1" target="idtFsPLVlB8KMN15-Iu1-22" source="-4e21ovLT8-M-5KT2Jtu-30">
          <mxGeometry relative="1" as="geometry">
            <mxPoint x="-1570" y="1230" as="sourcePoint" />
            <mxPoint x="-2130" y="548" as="targetPoint" />
            <Array as="points">
              <mxPoint x="-1638" y="1398" />
            </Array>
          </mxGeometry>
        </mxCell>
        <mxCell id="-4e21ovLT8-M-5KT2Jtu-27" value="+StatReports" style="swimlane;fontStyle=1;align=center;verticalAlign=top;childLayout=stackLayout;horizontal=1;startSize=26;horizontalStack=0;resizeParent=1;resizeParentMax=0;resizeLast=0;collapsible=1;marginBottom=0;" parent="WIyWlLk6GJQsqaUBKTNV-1" vertex="1">
          <mxGeometry x="-1790" y="1175" width="300" height="90" as="geometry">
            <mxRectangle x="2046" y="606" width="110" height="26" as="alternateBounds" />
          </mxGeometry>
        </mxCell>
        <mxCell id="-4e21ovLT8-M-5KT2Jtu-29" value="" style="line;strokeWidth=1;fillColor=none;align=left;verticalAlign=middle;spacingTop=-1;spacingLeft=3;spacingRight=3;rotatable=0;labelPosition=right;points=[];portConstraint=eastwest;" parent="-4e21ovLT8-M-5KT2Jtu-27" vertex="1">
          <mxGeometry y="26" width="300" height="8" as="geometry" />
        </mxCell>
        <mxCell id="-4e21ovLT8-M-5KT2Jtu-30" value="+create(RestClients, long, String , String ) StatReport&#xa;+get(RestClients, long, long) StatReport&#xa;" style="text;strokeColor=none;fillColor=none;align=left;verticalAlign=top;spacingLeft=4;spacingRight=4;overflow=hidden;rotatable=0;points=[[0,0.5],[1,0.5]];portConstraint=eastwest;" parent="-4e21ovLT8-M-5KT2Jtu-27" vertex="1">
          <mxGeometry y="34" width="300" height="56" as="geometry" />
        </mxCell>
        <mxCell id="7ZvF9bT9IcwRX-JwGskH-17" value="+Keyword" style="swimlane;fontStyle=1;align=center;verticalAlign=top;childLayout=stackLayout;horizontal=1;startSize=26;horizontalStack=0;resizeParent=1;resizeParentMax=0;resizeLast=0;collapsible=1;marginBottom=0;" parent="WIyWlLk6GJQsqaUBKTNV-1" vertex="1">
          <mxGeometry x="-4189" y="422" width="200" height="302" as="geometry">
            <mxRectangle x="240" y="320" width="80" height="26" as="alternateBounds" />
          </mxGeometry>
        </mxCell>
        <mxCell id="7ZvF9bT9IcwRX-JwGskH-18" value="- nccKeywordId : String&#xa;- keyword : String&#xa;- cumsterId : Long&#xa;- nccAdgroupId : String&#xa;- nccCampaignId : String&#xa;- links : Map&lt;String, Object&gt;&#xa;- userlock : Boolean&#xa;- inspectStatus : InspectStatus&#xa;- bidAmt : Long&#xa;- UseGroupBidAmt : Boolean&#xa;- regTm : Date&#xa;- editTm : Date&#xa;- status : String&#xa;- statusReason : String&#xa;- nccQi : NccQi&#xa;- managedKeyword : ManagedKeyword&#xa;- resultStatus : ResultStatus&#xa;" style="text;strokeColor=none;fillColor=none;align=left;verticalAlign=top;spacingLeft=4;spacingRight=4;overflow=hidden;rotatable=0;points=[[0,0.5],[1,0.5]];portConstraint=eastwest;" parent="7ZvF9bT9IcwRX-JwGskH-17" vertex="1">
          <mxGeometry y="26" width="200" height="242" as="geometry" />
        </mxCell>
        <mxCell id="7ZvF9bT9IcwRX-JwGskH-19" value="" style="line;strokeWidth=1;fillColor=none;align=left;verticalAlign=middle;spacingTop=-1;spacingLeft=3;spacingRight=3;rotatable=0;labelPosition=right;points=[];portConstraint=eastwest;labelBackgroundColor=default;" parent="7ZvF9bT9IcwRX-JwGskH-17" vertex="1">
          <mxGeometry y="268" width="200" height="8" as="geometry" />
        </mxCell>
        <mxCell id="7ZvF9bT9IcwRX-JwGskH-20" value="+ method(type): type" style="text;strokeColor=none;fillColor=none;align=left;verticalAlign=top;spacingLeft=4;spacingRight=4;overflow=hidden;rotatable=0;points=[[0,0.5],[1,0.5]];portConstraint=eastwest;labelBackgroundColor=default;" parent="7ZvF9bT9IcwRX-JwGskH-17" vertex="1">
          <mxGeometry y="276" width="200" height="26" as="geometry" />
        </mxCell>
        <mxCell id="7ZvF9bT9IcwRX-JwGskH-21" value="+UserLock" style="swimlane;fontStyle=1;align=center;verticalAlign=top;childLayout=stackLayout;horizontal=1;startSize=26;horizontalStack=0;resizeParent=1;resizeParentMax=0;resizeLast=0;collapsible=1;marginBottom=0;labelBackgroundColor=default;arcSize=2;" parent="WIyWlLk6GJQsqaUBKTNV-1" vertex="1">
          <mxGeometry x="-4039" y="1010" width="100" height="60" as="geometry">
            <mxRectangle x="360" y="320" width="90" height="26" as="alternateBounds" />
          </mxGeometry>
        </mxCell>
        <mxCell id="7ZvF9bT9IcwRX-JwGskH-22" value="- value : int" style="text;strokeColor=none;fillColor=none;align=left;verticalAlign=top;spacingLeft=4;spacingRight=4;overflow=hidden;rotatable=0;points=[[0,0.5],[1,0.5]];portConstraint=eastwest;labelBackgroundColor=default;" parent="7ZvF9bT9IcwRX-JwGskH-21" vertex="1">
          <mxGeometry y="26" width="100" height="26" as="geometry" />
        </mxCell>
        <mxCell id="7ZvF9bT9IcwRX-JwGskH-23" value="" style="line;strokeWidth=1;fillColor=none;align=left;verticalAlign=middle;spacingTop=-1;spacingLeft=3;spacingRight=3;rotatable=0;labelPosition=right;points=[];portConstraint=eastwest;labelBackgroundColor=default;" parent="7ZvF9bT9IcwRX-JwGskH-21" vertex="1">
          <mxGeometry y="52" width="100" height="8" as="geometry" />
        </mxCell>
        <mxCell id="LyYTvEO3KI667NE_mtn4-21" style="edgeStyle=orthogonalEdgeStyle;orthogonalLoop=1;jettySize=auto;html=1;fontSize=12;startArrow=diamondThin;startFill=1;endArrow=open;startSize=14;endSize=12;strokeColor=#0F0F0F;entryX=0.5;entryY=1;entryDx=0;entryDy=0;" edge="1" parent="WIyWlLk6GJQsqaUBKTNV-1" source="-4e21ovLT8-M-5KT2Jtu-51" target="idtFsPLVlB8KMN15-Iu1-123">
          <mxGeometry relative="1" as="geometry">
            <Array as="points">
              <mxPoint x="-659" y="612" />
              <mxPoint x="-595" y="612" />
            </Array>
          </mxGeometry>
        </mxCell>
        <mxCell id="-4e21ovLT8-M-5KT2Jtu-51" value="+RequestAveragePositionBid" style="swimlane;fontStyle=1;align=center;verticalAlign=top;childLayout=stackLayout;horizontal=1;startSize=26;horizontalStack=0;resizeParent=1;resizeParentMax=0;resizeLast=0;collapsible=1;marginBottom=0;" parent="WIyWlLk6GJQsqaUBKTNV-1" vertex="1">
          <mxGeometry x="-819" y="730" width="230" height="76" as="geometry" />
        </mxCell>
        <mxCell id="idtFsPLVlB8KMN15-Iu1-1" value="-device  : Device&#xa;-estimate : List&lt;EstimateBidByPostion&gt;" style="text;strokeColor=none;fillColor=none;align=left;verticalAlign=top;spacingLeft=4;spacingRight=4;overflow=hidden;rotatable=0;points=[[0,0.5],[1,0.5]];portConstraint=eastwest;" parent="-4e21ovLT8-M-5KT2Jtu-51" vertex="1">
          <mxGeometry y="26" width="230" height="42" as="geometry" />
        </mxCell>
        <mxCell id="-4e21ovLT8-M-5KT2Jtu-53" value="" style="line;strokeWidth=1;fillColor=none;align=left;verticalAlign=middle;spacingTop=-1;spacingLeft=3;spacingRight=3;rotatable=0;labelPosition=right;points=[];portConstraint=eastwest;" parent="-4e21ovLT8-M-5KT2Jtu-51" vertex="1">
          <mxGeometry y="68" width="230" height="8" as="geometry" />
        </mxCell>
        <mxCell id="7ZvF9bT9IcwRX-JwGskH-25" value="+InspectStatus" style="swimlane;fontStyle=1;align=center;verticalAlign=top;childLayout=stackLayout;horizontal=1;startSize=26;horizontalStack=0;resizeParent=1;resizeParentMax=0;resizeLast=0;collapsible=1;marginBottom=0;arcSize=19;" parent="WIyWlLk6GJQsqaUBKTNV-1" vertex="1">
          <mxGeometry x="-4273" y="275" width="117" height="60" as="geometry">
            <mxRectangle x="160" y="40" width="110" height="26" as="alternateBounds" />
          </mxGeometry>
        </mxCell>
        <mxCell id="7ZvF9bT9IcwRX-JwGskH-26" value="- value : Integer" style="text;strokeColor=none;fillColor=none;align=left;verticalAlign=top;spacingLeft=4;spacingRight=4;overflow=hidden;rotatable=0;points=[[0,0.5],[1,0.5]];portConstraint=eastwest;" parent="7ZvF9bT9IcwRX-JwGskH-25" vertex="1">
          <mxGeometry y="26" width="117" height="26" as="geometry" />
        </mxCell>
        <mxCell id="7ZvF9bT9IcwRX-JwGskH-27" value="" style="line;strokeWidth=1;fillColor=none;align=left;verticalAlign=middle;spacingTop=-1;spacingLeft=3;spacingRight=3;rotatable=0;labelPosition=right;points=[];portConstraint=eastwest;" parent="7ZvF9bT9IcwRX-JwGskH-25" vertex="1">
          <mxGeometry y="52" width="117" height="8" as="geometry" />
        </mxCell>
        <mxCell id="IsPKWjWjbbhWOZvx0KAc-95" style="edgeStyle=orthogonalEdgeStyle;orthogonalLoop=1;jettySize=auto;html=1;exitX=0.5;exitY=0;exitDx=0;exitDy=0;dashed=1;endArrow=open;endFill=0;labelBackgroundColor=default;entryX=0.5;entryY=0.836;entryDx=0;entryDy=0;entryPerimeter=0;" parent="WIyWlLk6GJQsqaUBKTNV-1" source="7ZvF9bT9IcwRX-JwGskH-29" target="7ZvF9bT9IcwRX-JwGskH-6" edge="1">
          <mxGeometry relative="1" as="geometry">
            <mxPoint x="-4469" y="892" as="targetPoint" />
            <Array as="points">
              <mxPoint x="-4554" y="867" />
            </Array>
          </mxGeometry>
        </mxCell>
        <mxCell id="7ZvF9bT9IcwRX-JwGskH-29" value="+Campaigns" style="swimlane;fontStyle=1;align=center;verticalAlign=top;childLayout=stackLayout;horizontal=1;startSize=26;horizontalStack=0;resizeParent=1;resizeParentMax=0;resizeLast=0;collapsible=1;marginBottom=0;labelBackgroundColor=default;" parent="WIyWlLk6GJQsqaUBKTNV-1" vertex="1">
          <mxGeometry x="-4679" y="1010" width="250" height="70" as="geometry">
            <mxRectangle x="20" y="710" width="100" height="26" as="alternateBounds" />
          </mxGeometry>
        </mxCell>
        <mxCell id="7ZvF9bT9IcwRX-JwGskH-31" value="" style="line;strokeWidth=1;fillColor=none;align=left;verticalAlign=middle;spacingTop=-1;spacingLeft=3;spacingRight=3;rotatable=0;labelPosition=right;points=[];portConstraint=eastwest;labelBackgroundColor=default;" parent="7ZvF9bT9IcwRX-JwGskH-29" vertex="1">
          <mxGeometry y="26" width="250" height="8" as="geometry" />
        </mxCell>
        <mxCell id="7ZvF9bT9IcwRX-JwGskH-32" value="+ list(RestClient, long) : Campaign[]&#xa;+ update(RestClient, long, Campaign, String) : Campaign" style="text;strokeColor=none;fillColor=none;align=left;verticalAlign=top;spacingLeft=4;spacingRight=4;overflow=hidden;rotatable=0;points=[[0,0.5],[1,0.5]];portConstraint=eastwest;labelBackgroundColor=default;" parent="7ZvF9bT9IcwRX-JwGskH-29" vertex="1">
          <mxGeometry y="34" width="250" height="36" as="geometry" />
        </mxCell>
        <mxCell id="IsPKWjWjbbhWOZvx0KAc-97" style="edgeStyle=orthogonalEdgeStyle;orthogonalLoop=1;jettySize=auto;html=1;exitX=0.5;exitY=0;exitDx=0;exitDy=0;dashed=1;endArrow=open;endFill=0;entryX=0.5;entryY=1;entryDx=0;entryDy=0;labelBackgroundColor=default;" parent="WIyWlLk6GJQsqaUBKTNV-1" source="7ZvF9bT9IcwRX-JwGskH-33" target="7ZvF9bT9IcwRX-JwGskH-8" edge="1">
          <mxGeometry relative="1" as="geometry">
            <mxPoint x="-3869" y="672" as="targetPoint" />
            <Array as="points">
              <mxPoint x="-4354" y="1192" />
            </Array>
          </mxGeometry>
        </mxCell>
        <mxCell id="7ZvF9bT9IcwRX-JwGskH-33" value="+Ads" style="swimlane;fontStyle=1;align=center;verticalAlign=top;childLayout=stackLayout;horizontal=1;startSize=26;horizontalStack=0;resizeParent=1;resizeParentMax=0;resizeLast=0;collapsible=1;marginBottom=0;fillStyle=auto;fillColor=#FFFFFF;labelBackgroundColor=default;" parent="WIyWlLk6GJQsqaUBKTNV-1" vertex="1">
          <mxGeometry x="-4503" y="1192" width="300" height="156" as="geometry">
            <mxRectangle x="130" y="710" width="60" height="26" as="alternateBounds" />
          </mxGeometry>
        </mxCell>
        <mxCell id="7ZvF9bT9IcwRX-JwGskH-34" value="~ adsPath : String" style="text;strokeColor=none;fillColor=none;align=left;verticalAlign=top;spacingLeft=4;spacingRight=4;overflow=hidden;rotatable=0;points=[[0,0.5],[1,0.5]];portConstraint=eastwest;labelBackgroundColor=default;" parent="7ZvF9bT9IcwRX-JwGskH-33" vertex="1">
          <mxGeometry y="26" width="300" height="26" as="geometry" />
        </mxCell>
        <mxCell id="7ZvF9bT9IcwRX-JwGskH-35" value="" style="line;strokeWidth=1;fillColor=none;align=left;verticalAlign=middle;spacingTop=-1;spacingLeft=3;spacingRight=3;rotatable=0;labelPosition=right;points=[];portConstraint=eastwest;labelBackgroundColor=default;" parent="7ZvF9bT9IcwRX-JwGskH-33" vertex="1">
          <mxGeometry y="52" width="300" height="8" as="geometry" />
        </mxCell>
        <mxCell id="7ZvF9bT9IcwRX-JwGskH-36" value="+ copy(RestClient, String, String, UserLock, long) : Ad[]&#xa;+ create(RestClient, Ad, long) : Ad&#xa;+ delete(RestClient, String, long) : void&#xa;+ get(RestClient, String, long) : Ad&#xa;+ listByAdgroup(RestClient, String, long) : Ad[]&#xa;+ update(RestClient, String, String, Ad, long) : Ad" style="text;strokeColor=none;fillColor=none;align=left;verticalAlign=top;spacingLeft=4;spacingRight=4;overflow=hidden;rotatable=0;points=[[0,0.5],[1,0.5]];portConstraint=eastwest;labelBackgroundColor=default;" parent="7ZvF9bT9IcwRX-JwGskH-33" vertex="1">
          <mxGeometry y="60" width="300" height="96" as="geometry" />
        </mxCell>
        <mxCell id="idtFsPLVlB8KMN15-Iu1-179" style="edgeStyle=orthogonalEdgeStyle;orthogonalLoop=1;jettySize=auto;html=1;fontSize=12;startArrow=diamondThin;startFill=1;endArrow=open;startSize=14;endSize=12;strokeColor=#0F0F0F;" parent="WIyWlLk6GJQsqaUBKTNV-1" source="idtFsPLVlB8KMN15-Iu1-2" target="idtFsPLVlB8KMN15-Iu1-48" edge="1">
          <mxGeometry relative="1" as="geometry">
            <Array as="points">
              <mxPoint x="-1656" y="280" />
              <mxPoint x="-1159" y="280" />
            </Array>
          </mxGeometry>
        </mxCell>
        <mxCell id="IsPKWjWjbbhWOZvx0KAc-98" style="edgeStyle=orthogonalEdgeStyle;orthogonalLoop=1;jettySize=auto;html=1;exitX=0.5;exitY=0;exitDx=0;exitDy=0;entryX=0.487;entryY=0.978;entryDx=0;entryDy=0;entryPerimeter=0;dashed=1;endArrow=open;endFill=0;labelBackgroundColor=default;" parent="WIyWlLk6GJQsqaUBKTNV-1" source="IsPKWjWjbbhWOZvx0KAc-0" target="7ZvF9bT9IcwRX-JwGskH-20" edge="1">
          <mxGeometry relative="1" as="geometry">
            <Array as="points">
              <mxPoint x="-3704" y="802" />
              <mxPoint x="-4092" y="802" />
            </Array>
          </mxGeometry>
        </mxCell>
        <mxCell id="IsPKWjWjbbhWOZvx0KAc-138" style="edgeStyle=orthogonalEdgeStyle;orthogonalLoop=1;jettySize=auto;html=1;exitX=0.527;exitY=0.006;exitDx=0;exitDy=0;entryX=0.31;entryY=1.026;entryDx=0;entryDy=0;entryPerimeter=0;dashed=1;startFill=0;endArrow=openThin;endFill=0;startSize=14;endSize=12;sourcePerimeterSpacing=1;exitPerimeter=0;" parent="WIyWlLk6GJQsqaUBKTNV-1" source="IsPKWjWjbbhWOZvx0KAc-0" target="IsPKWjWjbbhWOZvx0KAc-56" edge="1">
          <mxGeometry relative="1" as="geometry">
            <Array as="points">
              <mxPoint x="-3695" y="822" />
              <mxPoint x="-2703" y="822" />
              <mxPoint x="-2703" y="615" />
            </Array>
          </mxGeometry>
        </mxCell>
        <mxCell id="IsPKWjWjbbhWOZvx0KAc-0" value="+Keywords" style="swimlane;fontStyle=1;align=center;verticalAlign=top;childLayout=stackLayout;horizontal=1;startSize=26;horizontalStack=0;resizeParent=1;resizeParentMax=0;resizeLast=0;collapsible=1;marginBottom=0;" parent="WIyWlLk6GJQsqaUBKTNV-1" vertex="1">
          <mxGeometry x="-3879" y="839" width="350" height="136" as="geometry">
            <mxRectangle x="370" y="720" width="90" height="26" as="alternateBounds" />
          </mxGeometry>
        </mxCell>
        <mxCell id="IsPKWjWjbbhWOZvx0KAc-1" value="~ keywordsPath : String" style="text;strokeColor=none;fillColor=none;align=left;verticalAlign=top;spacingLeft=4;spacingRight=4;overflow=hidden;rotatable=0;points=[[0,0.5],[1,0.5]];portConstraint=eastwest;" parent="IsPKWjWjbbhWOZvx0KAc-0" vertex="1">
          <mxGeometry y="26" width="350" height="26" as="geometry" />
        </mxCell>
        <mxCell id="IsPKWjWjbbhWOZvx0KAc-2" value="" style="line;strokeWidth=1;fillColor=none;align=left;verticalAlign=middle;spacingTop=-1;spacingLeft=3;spacingRight=3;rotatable=0;labelPosition=right;points=[];portConstraint=eastwest;" parent="IsPKWjWjbbhWOZvx0KAc-0" vertex="1">
          <mxGeometry y="52" width="350" height="8" as="geometry" />
        </mxCell>
        <mxCell id="IsPKWjWjbbhWOZvx0KAc-3" value="+ create(RestClient, long, String, Keyword[]) : Keyword[]&#xa;+ delete(RestClient, long, String) : Keyword&#xa;+ listByAdgroupId(RestClient, long, String) : Keyword[]&#xa;+ updateItem(RestClient, long, Keyword, String) : Keyword&#xa;+ updateItems(RestClient, long, Keyword[], String) : Keyword[]" style="text;strokeColor=none;fillColor=none;align=left;verticalAlign=top;spacingLeft=4;spacingRight=4;overflow=hidden;rotatable=0;points=[[0,0.5],[1,0.5]];portConstraint=eastwest;" parent="IsPKWjWjbbhWOZvx0KAc-0" vertex="1">
          <mxGeometry y="60" width="350" height="76" as="geometry" />
        </mxCell>
        <mxCell id="IsPKWjWjbbhWOZvx0KAc-122" style="edgeStyle=orthogonalEdgeStyle;orthogonalLoop=1;jettySize=auto;html=1;dashed=1;endArrow=open;endFill=0;entryX=1;entryY=0.438;entryDx=0;entryDy=0;entryPerimeter=0;exitX=0.5;exitY=0;exitDx=0;exitDy=0;" parent="WIyWlLk6GJQsqaUBKTNV-1" source="IsPKWjWjbbhWOZvx0KAc-4" target="IsPKWjWjbbhWOZvx0KAc-9" edge="1">
          <mxGeometry relative="1" as="geometry">
            <Array as="points">
              <mxPoint x="-3559" y="148" />
            </Array>
            <mxPoint x="-3529" y="602" as="sourcePoint" />
          </mxGeometry>
        </mxCell>
        <mxCell id="IsPKWjWjbbhWOZvx0KAc-123" style="edgeStyle=orthogonalEdgeStyle;orthogonalLoop=1;jettySize=auto;html=1;exitX=-0.003;exitY=0.094;exitDx=0;exitDy=0;dashed=1;endArrow=open;endFill=0;labelBackgroundColor=default;entryX=0.458;entryY=0.963;entryDx=0;entryDy=0;entryPerimeter=0;exitPerimeter=0;" parent="WIyWlLk6GJQsqaUBKTNV-1" source="IsPKWjWjbbhWOZvx0KAc-7" edge="1" target="IsPKWjWjbbhWOZvx0KAc-105">
          <mxGeometry relative="1" as="geometry">
            <mxPoint x="-3489" y="741" as="targetPoint" />
            <Array as="points">
              <mxPoint x="-3771" y="734" />
            </Array>
          </mxGeometry>
        </mxCell>
        <mxCell id="IsPKWjWjbbhWOZvx0KAc-4" value="+Adgroups" style="swimlane;fontStyle=1;align=center;verticalAlign=top;childLayout=stackLayout;horizontal=1;startSize=26;horizontalStack=0;resizeParent=1;resizeParentMax=0;resizeLast=0;collapsible=1;marginBottom=0;" parent="WIyWlLk6GJQsqaUBKTNV-1" vertex="1">
          <mxGeometry x="-3679" y="667" width="240" height="136" as="geometry">
            <mxRectangle x="500" y="720" width="90" height="26" as="alternateBounds" />
          </mxGeometry>
        </mxCell>
        <mxCell id="IsPKWjWjbbhWOZvx0KAc-5" value="~ apiPath : String" style="text;strokeColor=none;fillColor=none;align=left;verticalAlign=top;spacingLeft=4;spacingRight=4;overflow=hidden;rotatable=0;points=[[0,0.5],[1,0.5]];portConstraint=eastwest;" parent="IsPKWjWjbbhWOZvx0KAc-4" vertex="1">
          <mxGeometry y="26" width="240" height="26" as="geometry" />
        </mxCell>
        <mxCell id="IsPKWjWjbbhWOZvx0KAc-6" value="" style="line;strokeWidth=1;fillColor=none;align=left;verticalAlign=middle;spacingTop=-1;spacingLeft=3;spacingRight=3;rotatable=0;labelPosition=right;points=[];portConstraint=eastwest;" parent="IsPKWjWjbbhWOZvx0KAc-4" vertex="1">
          <mxGeometry y="52" width="240" height="8" as="geometry" />
        </mxCell>
        <mxCell id="IsPKWjWjbbhWOZvx0KAc-7" value="+ create(RestClient, long, String, String, String) : Adgroup&#xa;+ delete(RestClient, long, String) : void&#xa;+ listByCampaignId(RestClient, long, String) : Adgroup[]&#xa;+ targets(RestClient, long, String) : Map&lt;String, Target&gt;&#xa;+ update(RestClient, long, Adgroup, String) : Adgroup" style="text;strokeColor=none;fillColor=none;align=left;verticalAlign=top;spacingLeft=4;spacingRight=4;overflow=hidden;rotatable=0;points=[[0,0.5],[1,0.5]];portConstraint=eastwest;" parent="IsPKWjWjbbhWOZvx0KAc-4" vertex="1">
          <mxGeometry y="60" width="240" height="76" as="geometry" />
        </mxCell>
        <mxCell id="LyYTvEO3KI667NE_mtn4-15" style="edgeStyle=orthogonalEdgeStyle;orthogonalLoop=1;jettySize=auto;html=1;fontSize=12;startArrow=diamondThin;startFill=1;endArrow=open;startSize=14;endSize=12;strokeColor=#0F0F0F;" edge="1" parent="WIyWlLk6GJQsqaUBKTNV-1" source="idtFsPLVlB8KMN15-Iu1-10" target="idtFsPLVlB8KMN15-Iu1-33">
          <mxGeometry relative="1" as="geometry">
            <Array as="points">
              <mxPoint x="-419" y="612" />
              <mxPoint x="-349" y="612" />
            </Array>
          </mxGeometry>
        </mxCell>
        <mxCell id="idtFsPLVlB8KMN15-Iu1-10" value="+ResponseAveragePositionBid" style="swimlane;fontStyle=1;align=center;verticalAlign=top;childLayout=stackLayout;horizontal=1;startSize=26;horizontalStack=0;resizeParent=1;resizeParentMax=0;resizeLast=0;collapsible=1;marginBottom=0;" parent="WIyWlLk6GJQsqaUBKTNV-1" vertex="1">
          <mxGeometry x="-549" y="730" width="180" height="86" as="geometry" />
        </mxCell>
        <mxCell id="idtFsPLVlB8KMN15-Iu1-11" value="-device  : Device&#xa;=items : List&lt;KeyAndPosition&gt;" style="text;strokeColor=none;fillColor=none;align=left;verticalAlign=top;spacingLeft=4;spacingRight=4;overflow=hidden;rotatable=0;points=[[0,0.5],[1,0.5]];portConstraint=eastwest;" parent="idtFsPLVlB8KMN15-Iu1-10" vertex="1">
          <mxGeometry y="26" width="180" height="52" as="geometry" />
        </mxCell>
        <mxCell id="idtFsPLVlB8KMN15-Iu1-12" value="" style="line;strokeWidth=1;fillColor=none;align=left;verticalAlign=middle;spacingTop=-1;spacingLeft=3;spacingRight=3;rotatable=0;labelPosition=right;points=[];portConstraint=eastwest;" parent="idtFsPLVlB8KMN15-Iu1-10" vertex="1">
          <mxGeometry y="78" width="180" height="8" as="geometry" />
        </mxCell>
        <mxCell id="IsPKWjWjbbhWOZvx0KAc-8" value="+Target" style="swimlane;fontStyle=1;align=center;verticalAlign=top;childLayout=stackLayout;horizontal=1;startSize=26;horizontalStack=0;resizeParent=1;resizeParentMax=0;resizeLast=0;collapsible=1;marginBottom=0;" parent="WIyWlLk6GJQsqaUBKTNV-1" vertex="1">
          <mxGeometry x="-3875" y="82" width="220" height="126" as="geometry">
            <mxRectangle x="450" y="160" width="70" height="26" as="alternateBounds" />
          </mxGeometry>
        </mxCell>
        <mxCell id="IsPKWjWjbbhWOZvx0KAc-9" value="+ nccTargetId : String&#xa;+ ownerId : String&#xa;+ targetTp : String&#xa;+ target : Map&lt;String, Object&gt;&#xa;+ regTm : Date&#xa;+ editTm : Date " style="text;strokeColor=none;fillColor=none;align=left;verticalAlign=top;spacingLeft=4;spacingRight=4;overflow=hidden;rotatable=0;points=[[0,0.5],[1,0.5]];portConstraint=eastwest;" parent="IsPKWjWjbbhWOZvx0KAc-8" vertex="1">
          <mxGeometry y="26" width="220" height="92" as="geometry" />
        </mxCell>
        <mxCell id="IsPKWjWjbbhWOZvx0KAc-10" value="" style="line;strokeWidth=1;fillColor=none;align=left;verticalAlign=middle;spacingTop=-1;spacingLeft=3;spacingRight=3;rotatable=0;labelPosition=right;points=[];portConstraint=eastwest;" parent="IsPKWjWjbbhWOZvx0KAc-8" vertex="1">
          <mxGeometry y="118" width="220" height="8" as="geometry" />
        </mxCell>
        <mxCell id="idtFsPLVlB8KMN15-Iu1-180" style="edgeStyle=orthogonalEdgeStyle;orthogonalLoop=1;jettySize=auto;html=1;fontSize=12;startArrow=diamondThin;startFill=1;endArrow=open;startSize=14;endSize=12;strokeColor=#0F0F0F;exitX=0.344;exitY=-0.012;exitDx=0;exitDy=0;exitPerimeter=0;" parent="WIyWlLk6GJQsqaUBKTNV-1" source="idtFsPLVlB8KMN15-Iu1-13" target="idtFsPLVlB8KMN15-Iu1-48" edge="1">
          <mxGeometry relative="1" as="geometry">
            <mxPoint x="-1299" y="212" as="targetPoint" />
            <Array as="points">
              <mxPoint x="-1933" y="320" />
              <mxPoint x="-1199" y="320" />
            </Array>
          </mxGeometry>
        </mxCell>
        <mxCell id="LyYTvEO3KI667NE_mtn4-30" style="edgeStyle=orthogonalEdgeStyle;orthogonalLoop=1;jettySize=auto;html=1;fontSize=12;startArrow=diamondThin;startFill=1;endArrow=open;startSize=14;endSize=12;strokeColor=#0F0F0F;" edge="1" parent="WIyWlLk6GJQsqaUBKTNV-1" source="idtFsPLVlB8KMN15-Iu1-13" target="idtFsPLVlB8KMN15-Iu1-36">
          <mxGeometry relative="1" as="geometry">
            <Array as="points">
              <mxPoint x="-1839" y="532" />
              <mxPoint x="-1339" y="532" />
            </Array>
          </mxGeometry>
        </mxCell>
        <mxCell id="idtFsPLVlB8KMN15-Iu1-13" value="+ResponseBidByStaisticsDistribution" style="swimlane;fontStyle=1;align=center;verticalAlign=top;childLayout=stackLayout;horizontal=1;startSize=26;horizontalStack=0;resizeParent=1;resizeParentMax=0;resizeLast=0;collapsible=1;marginBottom=0;fontSize=12;" parent="WIyWlLk6GJQsqaUBKTNV-1" vertex="1">
          <mxGeometry x="-2019" y="731" width="250" height="78" as="geometry" />
        </mxCell>
        <mxCell id="idtFsPLVlB8KMN15-Iu1-14" value="-device  : Device&#xa;=estimate : List&lt;Bid&gt;" style="text;strokeColor=none;fillColor=none;align=left;verticalAlign=top;spacingLeft=4;spacingRight=4;overflow=hidden;rotatable=0;points=[[0,0.5],[1,0.5]];portConstraint=eastwest;" parent="idtFsPLVlB8KMN15-Iu1-13" vertex="1">
          <mxGeometry y="26" width="250" height="44" as="geometry" />
        </mxCell>
        <mxCell id="idtFsPLVlB8KMN15-Iu1-15" value="" style="line;strokeWidth=1;fillColor=none;align=left;verticalAlign=middle;spacingTop=-1;spacingLeft=3;spacingRight=3;rotatable=0;labelPosition=right;points=[];portConstraint=eastwest;" parent="idtFsPLVlB8KMN15-Iu1-13" vertex="1">
          <mxGeometry y="70" width="250" height="8" as="geometry" />
        </mxCell>
        <mxCell id="IsPKWjWjbbhWOZvx0KAc-16" value="+CustomerLink" style="swimlane;fontStyle=1;align=center;verticalAlign=top;childLayout=stackLayout;horizontal=1;startSize=26;horizontalStack=0;resizeParent=1;resizeParentMax=0;resizeLast=0;collapsible=1;marginBottom=0;" parent="WIyWlLk6GJQsqaUBKTNV-1" vertex="1">
          <mxGeometry x="-3562.5" y="1232" width="170" height="98" as="geometry">
            <mxRectangle x="640" y="440" width="110" height="26" as="alternateBounds" />
          </mxGeometry>
        </mxCell>
        <mxCell id="IsPKWjWjbbhWOZvx0KAc-17" value="~ managerEnable : int&#xa;~ managerCustomerId : long&#xa;~ roleId : int&#xa;~ clientCustomerId : long" style="text;strokeColor=none;fillColor=none;align=left;verticalAlign=top;spacingLeft=4;spacingRight=4;overflow=hidden;rotatable=0;points=[[0,0.5],[1,0.5]];portConstraint=eastwest;" parent="IsPKWjWjbbhWOZvx0KAc-16" vertex="1">
          <mxGeometry y="26" width="170" height="64" as="geometry" />
        </mxCell>
        <mxCell id="IsPKWjWjbbhWOZvx0KAc-18" value="" style="line;strokeWidth=1;fillColor=none;align=left;verticalAlign=middle;spacingTop=-1;spacingLeft=3;spacingRight=3;rotatable=0;labelPosition=right;points=[];portConstraint=eastwest;" parent="IsPKWjWjbbhWOZvx0KAc-16" vertex="1">
          <mxGeometry y="90" width="170" height="8" as="geometry" />
        </mxCell>
        <mxCell id="IsPKWjWjbbhWOZvx0KAc-109" style="edgeStyle=orthogonalEdgeStyle;orthogonalLoop=1;jettySize=auto;html=1;dashed=1;endArrow=open;endFill=0;exitX=0.5;exitY=1;exitDx=0;exitDy=0;entryX=0.5;entryY=0;entryDx=0;entryDy=0;" parent="WIyWlLk6GJQsqaUBKTNV-1" source="IsPKWjWjbbhWOZvx0KAc-20" target="IsPKWjWjbbhWOZvx0KAc-16" edge="1">
          <mxGeometry relative="1" as="geometry">
            <Array as="points">
              <mxPoint x="-3476" y="1192" />
              <mxPoint x="-3477" y="1192" />
              <mxPoint x="-3477" y="1231" />
              <mxPoint x="-3477" y="1231" />
            </Array>
            <mxPoint x="-3349" y="1002" as="sourcePoint" />
            <mxPoint x="-3489" y="1202" as="targetPoint" />
          </mxGeometry>
        </mxCell>
        <mxCell id="IsPKWjWjbbhWOZvx0KAc-110" style="edgeStyle=orthogonalEdgeStyle;orthogonalLoop=1;jettySize=auto;html=1;exitX=0.5;exitY=0;exitDx=0;exitDy=0;dashed=1;endArrow=open;endFill=0;entryX=0.365;entryY=1.024;entryDx=0;entryDy=0;entryPerimeter=0;" parent="WIyWlLk6GJQsqaUBKTNV-1" source="IsPKWjWjbbhWOZvx0KAc-20" target="IsPKWjWjbbhWOZvx0KAc-56" edge="1">
          <mxGeometry relative="1" as="geometry">
            <mxPoint x="-2589" y="710" as="targetPoint" />
            <Array as="points">
              <mxPoint x="-3476" y="882" />
              <mxPoint x="-2689" y="882" />
            </Array>
          </mxGeometry>
        </mxCell>
        <mxCell id="IsPKWjWjbbhWOZvx0KAc-20" value="+CustomerLinks" style="swimlane;fontStyle=1;align=center;verticalAlign=top;childLayout=stackLayout;horizontal=1;startSize=26;horizontalStack=0;resizeParent=1;resizeParentMax=0;resizeLast=0;collapsible=1;marginBottom=0;" parent="WIyWlLk6GJQsqaUBKTNV-1" vertex="1">
          <mxGeometry x="-3589" y="1010" width="225" height="78" as="geometry">
            <mxRectangle x="640" y="560" width="120" height="26" as="alternateBounds" />
          </mxGeometry>
        </mxCell>
        <mxCell id="IsPKWjWjbbhWOZvx0KAc-22" value="" style="line;strokeWidth=1;fillColor=none;align=left;verticalAlign=middle;spacingTop=-1;spacingLeft=3;spacingRight=3;rotatable=0;labelPosition=right;points=[];portConstraint=eastwest;" parent="IsPKWjWjbbhWOZvx0KAc-20" vertex="1">
          <mxGeometry y="26" width="225" height="8" as="geometry" />
        </mxCell>
        <mxCell id="IsPKWjWjbbhWOZvx0KAc-23" value="+ list(RestClient, long) : CustomerLink[]&#xa;+ list(RestClient, long, String) : CustomerLink[]" style="text;strokeColor=none;fillColor=none;align=left;verticalAlign=top;spacingLeft=4;spacingRight=4;overflow=hidden;rotatable=0;points=[[0,0.5],[1,0.5]];portConstraint=eastwest;" parent="IsPKWjWjbbhWOZvx0KAc-20" vertex="1">
          <mxGeometry y="34" width="225" height="44" as="geometry" />
        </mxCell>
        <mxCell id="LyYTvEO3KI667NE_mtn4-28" style="edgeStyle=orthogonalEdgeStyle;orthogonalLoop=1;jettySize=auto;html=1;fontSize=12;startArrow=diamondThin;startFill=1;endArrow=open;startSize=14;endSize=12;strokeColor=#0F0F0F;" edge="1" parent="WIyWlLk6GJQsqaUBKTNV-1" source="idtFsPLVlB8KMN15-Iu1-19" target="idtFsPLVlB8KMN15-Iu1-45">
          <mxGeometry relative="1" as="geometry">
            <Array as="points">
              <mxPoint x="-1369" y="572" />
              <mxPoint x="-1139" y="572" />
            </Array>
          </mxGeometry>
        </mxCell>
        <mxCell id="idtFsPLVlB8KMN15-Iu1-19" value="+RequestBidByStatisticsDistribution" style="swimlane;fontStyle=1;align=center;verticalAlign=top;childLayout=stackLayout;horizontal=1;startSize=26;horizontalStack=0;resizeParent=1;resizeParentMax=0;resizeLast=0;collapsible=1;marginBottom=0;" parent="WIyWlLk6GJQsqaUBKTNV-1" vertex="1">
          <mxGeometry x="-1529" y="730" width="210" height="98" as="geometry" />
        </mxCell>
        <mxCell id="idtFsPLVlB8KMN15-Iu1-20" value="-device : Device&#xa;-period : PeriodType&#xa;-items : List&lt;String&gt;" style="text;strokeColor=none;fillColor=none;align=left;verticalAlign=top;spacingLeft=4;spacingRight=4;overflow=hidden;rotatable=0;points=[[0,0.5],[1,0.5]];portConstraint=eastwest;" parent="idtFsPLVlB8KMN15-Iu1-19" vertex="1">
          <mxGeometry y="26" width="210" height="64" as="geometry" />
        </mxCell>
        <mxCell id="idtFsPLVlB8KMN15-Iu1-21" value="" style="line;strokeWidth=1;fillColor=none;align=left;verticalAlign=middle;spacingTop=-1;spacingLeft=3;spacingRight=3;rotatable=0;labelPosition=right;points=[];portConstraint=eastwest;" parent="idtFsPLVlB8KMN15-Iu1-19" vertex="1">
          <mxGeometry y="90" width="210" height="8" as="geometry" />
        </mxCell>
        <mxCell id="idtFsPLVlB8KMN15-Iu1-22" value="+StatReport" style="swimlane;fontStyle=1;align=center;verticalAlign=top;childLayout=stackLayout;horizontal=1;startSize=26;horizontalStack=0;resizeParent=1;resizeParentMax=0;resizeLast=0;collapsible=1;marginBottom=0;arcSize=39;" parent="WIyWlLk6GJQsqaUBKTNV-1" vertex="1">
          <mxGeometry x="-1715" y="1354" width="141" height="126" as="geometry">
            <mxRectangle x="1830" y="246" width="100" height="26" as="alternateBounds" />
          </mxGeometry>
        </mxCell>
        <mxCell id="idtFsPLVlB8KMN15-Iu1-23" value="-reportJobld : Long&#xa;-reportTp : String&#xa;-status : String&#xa;-downloadUrl : String&#xa;-statDt : String&#xa;-updateTm : String" style="text;strokeColor=none;fillColor=none;align=left;verticalAlign=top;spacingLeft=4;spacingRight=4;overflow=hidden;rotatable=0;points=[[0,0.5],[1,0.5]];portConstraint=eastwest;" parent="idtFsPLVlB8KMN15-Iu1-22" vertex="1">
          <mxGeometry y="26" width="141" height="92" as="geometry" />
        </mxCell>
        <mxCell id="idtFsPLVlB8KMN15-Iu1-24" value="" style="line;strokeWidth=1;fillColor=none;align=left;verticalAlign=middle;spacingTop=-1;spacingLeft=3;spacingRight=3;rotatable=0;labelPosition=right;points=[];portConstraint=eastwest;" parent="idtFsPLVlB8KMN15-Iu1-22" vertex="1">
          <mxGeometry y="118" width="141" height="8" as="geometry" />
        </mxCell>
        <mxCell id="idtFsPLVlB8KMN15-Iu1-25" value="+MasterReport" style="swimlane;fontStyle=1;align=center;verticalAlign=top;childLayout=stackLayout;horizontal=1;startSize=26;horizontalStack=0;resizeParent=1;resizeParentMax=0;resizeLast=0;collapsible=1;marginBottom=0;" parent="WIyWlLk6GJQsqaUBKTNV-1" vertex="1">
          <mxGeometry x="-2223" y="1352" width="130" height="126" as="geometry" />
        </mxCell>
        <mxCell id="idtFsPLVlB8KMN15-Iu1-26" value="~id : String&#xa;~item : Item&#xa;~fromTime : String&#xa;~updateTime : String&#xa;~status : Status&#xa;~download : String" style="text;strokeColor=none;fillColor=none;align=left;verticalAlign=top;spacingLeft=4;spacingRight=4;overflow=hidden;rotatable=0;points=[[0,0.5],[1,0.5]];portConstraint=eastwest;" parent="idtFsPLVlB8KMN15-Iu1-25" vertex="1">
          <mxGeometry y="26" width="130" height="92" as="geometry" />
        </mxCell>
        <mxCell id="idtFsPLVlB8KMN15-Iu1-27" value="" style="line;strokeWidth=1;fillColor=none;align=left;verticalAlign=middle;spacingTop=-1;spacingLeft=3;spacingRight=3;rotatable=0;labelPosition=right;points=[];portConstraint=eastwest;" parent="idtFsPLVlB8KMN15-Iu1-25" vertex="1">
          <mxGeometry y="118" width="130" height="8" as="geometry" />
        </mxCell>
        <mxCell id="IsPKWjWjbbhWOZvx0KAc-134" style="edgeStyle=orthogonalEdgeStyle;orthogonalLoop=1;jettySize=auto;html=1;exitX=0.526;exitY=-0.003;exitDx=0;exitDy=0;entryX=0.5;entryY=1;entryDx=0;entryDy=0;dashed=1;startFill=0;endArrow=openThin;endFill=0;startSize=14;endSize=12;sourcePerimeterSpacing=1;exitPerimeter=0;" parent="WIyWlLk6GJQsqaUBKTNV-1" source="IsPKWjWjbbhWOZvx0KAc-28" target="IsPKWjWjbbhWOZvx0KAc-32" edge="1">
          <mxGeometry relative="1" as="geometry">
            <Array as="points">
              <mxPoint x="-3206" y="407" />
              <mxPoint x="-3206" y="368" />
            </Array>
          </mxGeometry>
        </mxCell>
        <mxCell id="IsPKWjWjbbhWOZvx0KAc-139" style="edgeStyle=orthogonalEdgeStyle;orthogonalLoop=1;jettySize=auto;html=1;exitX=0.994;exitY=1.063;exitDx=0;exitDy=0;dashed=1;startFill=0;endArrow=openThin;endFill=0;startSize=14;endSize=12;sourcePerimeterSpacing=1;exitPerimeter=0;entryX=-0.004;entryY=0.767;entryDx=0;entryDy=0;entryPerimeter=0;" parent="WIyWlLk6GJQsqaUBKTNV-1" source="IsPKWjWjbbhWOZvx0KAc-29" target="IsPKWjWjbbhWOZvx0KAc-54" edge="1">
          <mxGeometry relative="1" as="geometry">
            <mxPoint x="-2719" y="632" as="targetPoint" />
            <Array as="points">
              <mxPoint x="-3061" y="502" />
            </Array>
          </mxGeometry>
        </mxCell>
        <mxCell id="IsPKWjWjbbhWOZvx0KAc-28" value="+Channels" style="swimlane;fontStyle=1;align=center;verticalAlign=top;childLayout=stackLayout;horizontal=1;startSize=26;horizontalStack=0;resizeParent=1;resizeParentMax=0;resizeLast=0;collapsible=1;marginBottom=0;" parent="WIyWlLk6GJQsqaUBKTNV-1" vertex="1">
          <mxGeometry x="-3359" y="447" width="290" height="96" as="geometry">
            <mxRectangle x="920" y="560" width="90" height="26" as="alternateBounds" />
          </mxGeometry>
        </mxCell>
        <mxCell id="IsPKWjWjbbhWOZvx0KAc-29" value="- apiPath : String" style="text;strokeColor=none;fillColor=none;align=left;verticalAlign=top;spacingLeft=4;spacingRight=4;overflow=hidden;rotatable=0;points=[[0,0.5],[1,0.5]];portConstraint=eastwest;" parent="IsPKWjWjbbhWOZvx0KAc-28" vertex="1">
          <mxGeometry y="26" width="290" height="26" as="geometry" />
        </mxCell>
        <mxCell id="IsPKWjWjbbhWOZvx0KAc-30" value="" style="line;strokeWidth=1;fillColor=none;align=left;verticalAlign=middle;spacingTop=-1;spacingLeft=3;spacingRight=3;rotatable=0;labelPosition=right;points=[];portConstraint=eastwest;" parent="IsPKWjWjbbhWOZvx0KAc-28" vertex="1">
          <mxGeometry y="52" width="290" height="8" as="geometry" />
        </mxCell>
        <mxCell id="IsPKWjWjbbhWOZvx0KAc-31" value="+ create(RestClient, long, String, String) : Channel&#xa;+ list(RestClient, long) : Channel[]" style="text;strokeColor=none;fillColor=none;align=left;verticalAlign=top;spacingLeft=4;spacingRight=4;overflow=hidden;rotatable=0;points=[[0,0.5],[1,0.5]];portConstraint=eastwest;" parent="IsPKWjWjbbhWOZvx0KAc-28" vertex="1">
          <mxGeometry y="60" width="290" height="36" as="geometry" />
        </mxCell>
        <mxCell id="idtFsPLVlB8KMN15-Iu1-30" value="+BulkItem" style="swimlane;fontStyle=1;align=center;verticalAlign=top;childLayout=stackLayout;horizontal=1;startSize=26;horizontalStack=0;resizeParent=1;resizeParentMax=0;resizeLast=0;collapsible=1;marginBottom=0;" parent="WIyWlLk6GJQsqaUBKTNV-1" vertex="1">
          <mxGeometry x="-209" y="363" width="150" height="98" as="geometry" />
        </mxCell>
        <mxCell id="idtFsPLVlB8KMN15-Iu1-31" value="-keyword : String&#xa;-bid : Integer&#xa;-keywordplus : Boolean&#xa;-device : Device" style="text;strokeColor=none;fillColor=none;align=left;verticalAlign=top;spacingLeft=4;spacingRight=4;overflow=hidden;rotatable=0;points=[[0,0.5],[1,0.5]];portConstraint=eastwest;" parent="idtFsPLVlB8KMN15-Iu1-30" vertex="1">
          <mxGeometry y="26" width="150" height="64" as="geometry" />
        </mxCell>
        <mxCell id="idtFsPLVlB8KMN15-Iu1-32" value="" style="line;strokeWidth=1;fillColor=none;align=left;verticalAlign=middle;spacingTop=-1;spacingLeft=3;spacingRight=3;rotatable=0;labelPosition=right;points=[];portConstraint=eastwest;" parent="idtFsPLVlB8KMN15-Iu1-30" vertex="1">
          <mxGeometry y="90" width="150" height="8" as="geometry" />
        </mxCell>
        <mxCell id="IsPKWjWjbbhWOZvx0KAc-32" value="+Channel" style="swimlane;fontStyle=1;align=center;verticalAlign=top;childLayout=stackLayout;horizontal=1;startSize=26;horizontalStack=0;resizeParent=1;resizeParentMax=0;resizeLast=0;collapsible=1;marginBottom=0;" parent="WIyWlLk6GJQsqaUBKTNV-1" vertex="1">
          <mxGeometry x="-3310" y="183" width="210" height="182" as="geometry">
            <mxRectangle x="920" y="310" width="80" height="26" as="alternateBounds" />
          </mxGeometry>
        </mxCell>
        <mxCell id="IsPKWjWjbbhWOZvx0KAc-33" value="- nccBusinessChannelId : String&#xa;- customerId : Long&#xa;- channelTp : String&#xa;- name : String&#xa;- businessInfo : Map&lt;String, Object&gt;&#xa;- pcInspectStatus : String&#xa;- mobileInspectStatus : String&#xa;- adultStatus : String&#xa;- blackStatus : String&#xa;- enabled : Boolean&#xa;" style="text;strokeColor=none;fillColor=none;align=left;verticalAlign=top;spacingLeft=4;spacingRight=4;overflow=hidden;rotatable=0;points=[[0,0.5],[1,0.5]];portConstraint=eastwest;" parent="IsPKWjWjbbhWOZvx0KAc-32" vertex="1">
          <mxGeometry y="26" width="210" height="148" as="geometry" />
        </mxCell>
        <mxCell id="IsPKWjWjbbhWOZvx0KAc-34" value="" style="line;strokeWidth=1;fillColor=none;align=left;verticalAlign=middle;spacingTop=-1;spacingLeft=3;spacingRight=3;rotatable=0;labelPosition=right;points=[];portConstraint=eastwest;" parent="IsPKWjWjbbhWOZvx0KAc-32" vertex="1">
          <mxGeometry y="174" width="210" height="8" as="geometry" />
        </mxCell>
        <mxCell id="idtFsPLVlB8KMN15-Iu1-33" value="+EstimateBidByPosition" style="swimlane;fontStyle=1;align=center;verticalAlign=top;childLayout=stackLayout;horizontal=1;startSize=26;horizontalStack=0;resizeParent=1;resizeParentMax=0;resizeLast=0;collapsible=1;marginBottom=0;" parent="WIyWlLk6GJQsqaUBKTNV-1" vertex="1">
          <mxGeometry x="-419" y="362" width="160" height="112" as="geometry" />
        </mxCell>
        <mxCell id="idtFsPLVlB8KMN15-Iu1-34" value="-keyword : String&#xa;-position : Integer&#xa;-nccKeywordId : String&#xa;-bid : Integer" style="text;strokeColor=none;fillColor=none;align=left;verticalAlign=top;spacingLeft=4;spacingRight=4;overflow=hidden;rotatable=0;points=[[0,0.5],[1,0.5]];portConstraint=eastwest;" parent="idtFsPLVlB8KMN15-Iu1-33" vertex="1">
          <mxGeometry y="26" width="160" height="78" as="geometry" />
        </mxCell>
        <mxCell id="idtFsPLVlB8KMN15-Iu1-35" value="" style="line;strokeWidth=1;fillColor=none;align=left;verticalAlign=middle;spacingTop=-1;spacingLeft=3;spacingRight=3;rotatable=0;labelPosition=right;points=[];portConstraint=eastwest;" parent="idtFsPLVlB8KMN15-Iu1-33" vertex="1">
          <mxGeometry y="104" width="160" height="8" as="geometry" />
        </mxCell>
        <mxCell id="IsPKWjWjbbhWOZvx0KAc-40" value="+AdExtension" style="swimlane;fontStyle=1;align=center;verticalAlign=top;childLayout=stackLayout;horizontal=1;startSize=26;horizontalStack=0;resizeParent=1;resizeParentMax=0;resizeLast=0;collapsible=1;marginBottom=0;" parent="WIyWlLk6GJQsqaUBKTNV-1" vertex="1">
          <mxGeometry x="-3229" y="902" width="190" height="226" as="geometry">
            <mxRectangle x="1060" y="310" width="110" height="26" as="alternateBounds" />
          </mxGeometry>
        </mxCell>
        <mxCell id="IsPKWjWjbbhWOZvx0KAc-41" value="- nccAdExtensionId : String&#xa;- ownerId : String&#xa;- cumstomerId : long&#xa;- inspectStatus : String&#xa;- type : String&#xa;- schedule : Map&lt;String, Object&gt;&#xa;- pcChannelId : String&#xa;- mobileChannelId : String&#xa;- regTm : Date&#xa;- editTm : Date&#xa;- userLock : Boolean&#xa;- status : String&#xa;- statusReason : String&#xa;&#xa;" style="text;strokeColor=none;fillColor=none;align=left;verticalAlign=top;spacingLeft=4;spacingRight=4;overflow=hidden;rotatable=0;points=[[0,0.5],[1,0.5]];portConstraint=eastwest;" parent="IsPKWjWjbbhWOZvx0KAc-40" vertex="1">
          <mxGeometry y="26" width="190" height="192" as="geometry" />
        </mxCell>
        <mxCell id="IsPKWjWjbbhWOZvx0KAc-42" value="" style="line;strokeWidth=1;fillColor=none;align=left;verticalAlign=middle;spacingTop=-1;spacingLeft=3;spacingRight=3;rotatable=0;labelPosition=right;points=[];portConstraint=eastwest;" parent="IsPKWjWjbbhWOZvx0KAc-40" vertex="1">
          <mxGeometry y="218" width="190" height="8" as="geometry" />
        </mxCell>
        <mxCell id="idtFsPLVlB8KMN15-Iu1-36" value="+Bid" style="swimlane;fontStyle=1;align=center;verticalAlign=top;childLayout=stackLayout;horizontal=1;startSize=26;horizontalStack=0;resizeParent=1;resizeParentMax=0;resizeLast=0;collapsible=1;marginBottom=0;" parent="WIyWlLk6GJQsqaUBKTNV-1" vertex="1">
          <mxGeometry x="-1419" y="362" width="160" height="96" as="geometry">
            <mxRectangle x="3100" y="170" width="60" height="26" as="alternateBounds" />
          </mxGeometry>
        </mxCell>
        <mxCell id="idtFsPLVlB8KMN15-Iu1-37" value="-keyword : String&#xa;-nccKeywordId : String&#xa;-bid : Integer" style="text;strokeColor=none;fillColor=none;align=left;verticalAlign=top;spacingLeft=4;spacingRight=4;overflow=hidden;rotatable=0;points=[[0,0.5],[1,0.5]];portConstraint=eastwest;" parent="idtFsPLVlB8KMN15-Iu1-36" vertex="1">
          <mxGeometry y="26" width="160" height="62" as="geometry" />
        </mxCell>
        <mxCell id="idtFsPLVlB8KMN15-Iu1-38" value="" style="line;strokeWidth=1;fillColor=none;align=left;verticalAlign=middle;spacingTop=-1;spacingLeft=3;spacingRight=3;rotatable=0;labelPosition=right;points=[];portConstraint=eastwest;" parent="idtFsPLVlB8KMN15-Iu1-36" vertex="1">
          <mxGeometry y="88" width="160" height="8" as="geometry" />
        </mxCell>
        <mxCell id="IsPKWjWjbbhWOZvx0KAc-136" style="edgeStyle=orthogonalEdgeStyle;orthogonalLoop=1;jettySize=auto;html=1;exitX=0.5;exitY=0;exitDx=0;exitDy=0;entryX=0.5;entryY=1;entryDx=0;entryDy=0;dashed=1;startFill=0;endArrow=openThin;endFill=0;startSize=14;endSize=12;sourcePerimeterSpacing=1;" parent="WIyWlLk6GJQsqaUBKTNV-1" source="IsPKWjWjbbhWOZvx0KAc-44" target="IsPKWjWjbbhWOZvx0KAc-40" edge="1">
          <mxGeometry relative="1" as="geometry" />
        </mxCell>
        <mxCell id="IsPKWjWjbbhWOZvx0KAc-142" style="edgeStyle=orthogonalEdgeStyle;orthogonalLoop=1;jettySize=auto;html=1;dashed=1;startFill=0;endArrow=openThin;endFill=0;startSize=14;endSize=12;sourcePerimeterSpacing=1;entryX=0.435;entryY=1.026;entryDx=0;entryDy=0;entryPerimeter=0;exitX=1;exitY=0.5;exitDx=0;exitDy=0;" parent="WIyWlLk6GJQsqaUBKTNV-1" source="IsPKWjWjbbhWOZvx0KAc-47" target="IsPKWjWjbbhWOZvx0KAc-56" edge="1">
          <mxGeometry relative="1" as="geometry">
            <mxPoint x="-2599" y="640" as="targetPoint" />
            <mxPoint x="-3019" y="1182" as="sourcePoint" />
            <Array as="points">
              <mxPoint x="-2671" y="1279" />
            </Array>
          </mxGeometry>
        </mxCell>
        <mxCell id="IsPKWjWjbbhWOZvx0KAc-49" value="+Signatures" style="swimlane;fontStyle=1;align=center;verticalAlign=top;childLayout=stackLayout;horizontal=1;startSize=26;horizontalStack=0;resizeParent=1;resizeParentMax=0;resizeLast=0;collapsible=1;marginBottom=0;" parent="WIyWlLk6GJQsqaUBKTNV-1" vertex="1">
          <mxGeometry x="-2769" y="209" width="230" height="102" as="geometry">
            <mxRectangle x="1201" y="220" width="90" height="26" as="alternateBounds" />
          </mxGeometry>
        </mxCell>
        <mxCell id="IsPKWjWjbbhWOZvx0KAc-50" value="- PROVIDER : String&#xa;- HMAC_SHA256 : String" style="text;strokeColor=none;fillColor=none;align=left;verticalAlign=top;spacingLeft=4;spacingRight=4;overflow=hidden;rotatable=0;points=[[0,0.5],[1,0.5]];portConstraint=eastwest;" parent="IsPKWjWjbbhWOZvx0KAc-49" vertex="1">
          <mxGeometry y="26" width="230" height="32" as="geometry" />
        </mxCell>
        <mxCell id="IsPKWjWjbbhWOZvx0KAc-51" value="" style="line;strokeWidth=1;fillColor=none;align=left;verticalAlign=middle;spacingTop=-1;spacingLeft=3;spacingRight=3;rotatable=0;labelPosition=right;points=[];portConstraint=eastwest;" parent="IsPKWjWjbbhWOZvx0KAc-49" vertex="1">
          <mxGeometry y="58" width="230" height="8" as="geometry" />
        </mxCell>
        <mxCell id="IsPKWjWjbbhWOZvx0KAc-52" value="+ of(String, String) : String&#xa;+ of(String, String, String, String) : String" style="text;strokeColor=none;fillColor=none;align=left;verticalAlign=top;spacingLeft=4;spacingRight=4;overflow=hidden;rotatable=0;points=[[0,0.5],[1,0.5]];portConstraint=eastwest;" parent="IsPKWjWjbbhWOZvx0KAc-49" vertex="1">
          <mxGeometry y="66" width="230" height="36" as="geometry" />
        </mxCell>
        <mxCell id="IsPKWjWjbbhWOZvx0KAc-137" style="edgeStyle=orthogonalEdgeStyle;orthogonalLoop=1;jettySize=auto;html=1;exitX=0.5;exitY=0;exitDx=0;exitDy=0;entryX=0.5;entryY=1;entryDx=0;entryDy=0;dashed=1;startFill=0;endArrow=openThin;endFill=0;startSize=14;endSize=12;sourcePerimeterSpacing=1;" parent="WIyWlLk6GJQsqaUBKTNV-1" source="IsPKWjWjbbhWOZvx0KAc-53" target="IsPKWjWjbbhWOZvx0KAc-49" edge="1">
          <mxGeometry relative="1" as="geometry" />
        </mxCell>
        <mxCell id="IsPKWjWjbbhWOZvx0KAc-53" value="+RestClient" style="swimlane;fontStyle=1;align=center;verticalAlign=top;childLayout=stackLayout;horizontal=1;startSize=26;horizontalStack=0;resizeParent=1;resizeParentMax=0;resizeLast=0;collapsible=1;marginBottom=0;" parent="WIyWlLk6GJQsqaUBKTNV-1" vertex="1">
          <mxGeometry x="-2784" y="405" width="260" height="208" as="geometry">
            <mxRectangle x="1400" y="322" width="90" height="26" as="alternateBounds" />
          </mxGeometry>
        </mxCell>
        <mxCell id="IsPKWjWjbbhWOZvx0KAc-54" value="- OBJECT_MAPPER : ObjectMapper&#xa;- DEBUG_MODE : boolean&#xa;- initialized : boolean&#xa;- baseUrl : String&#xa;- apiKey : String&#xa;- secretKey : String" style="text;strokeColor=none;fillColor=none;align=left;verticalAlign=top;spacingLeft=4;spacingRight=4;overflow=hidden;rotatable=0;points=[[0,0.5],[1,0.5]];portConstraint=eastwest;" parent="IsPKWjWjbbhWOZvx0KAc-53" vertex="1">
          <mxGeometry y="26" width="260" height="92" as="geometry" />
        </mxCell>
        <mxCell id="IsPKWjWjbbhWOZvx0KAc-55" value="" style="line;strokeWidth=1;fillColor=none;align=left;verticalAlign=middle;spacingTop=-1;spacingLeft=3;spacingRight=3;rotatable=0;labelPosition=right;points=[];portConstraint=eastwest;" parent="IsPKWjWjbbhWOZvx0KAc-53" vertex="1">
          <mxGeometry y="118" width="260" height="8" as="geometry" />
        </mxCell>
        <mxCell id="IsPKWjWjbbhWOZvx0KAc-56" value="+ of(String, String, String) : RestClient&#xa;+ post(String, long) : HttpRequestWithBody&#xa;+ put(String, long) : HttpRequestWithBody&#xa;+ get(String, long) : GetRequest&#xa;+ delete(String, long) : HttpRequestWithBody" style="text;strokeColor=none;fillColor=none;align=left;verticalAlign=top;spacingLeft=4;spacingRight=4;overflow=hidden;rotatable=0;points=[[0,0.5],[1,0.5]];portConstraint=eastwest;" parent="IsPKWjWjbbhWOZvx0KAc-53" vertex="1">
          <mxGeometry y="126" width="260" height="82" as="geometry" />
        </mxCell>
        <mxCell id="IsPKWjWjbbhWOZvx0KAc-145" style="edgeStyle=orthogonalEdgeStyle;orthogonalLoop=1;jettySize=auto;html=1;dashed=1;startFill=0;endArrow=openThin;endFill=0;startSize=14;endSize=12;sourcePerimeterSpacing=1;entryX=0.589;entryY=1.012;entryDx=0;entryDy=0;entryPerimeter=0;" parent="WIyWlLk6GJQsqaUBKTNV-1" source="IsPKWjWjbbhWOZvx0KAc-57" target="IsPKWjWjbbhWOZvx0KAc-56" edge="1">
          <mxGeometry relative="1" as="geometry">
            <Array as="points" />
            <mxPoint x="-2631" y="1382" as="sourcePoint" />
            <mxPoint x="-2599" y="742" as="targetPoint" />
          </mxGeometry>
        </mxCell>
        <mxCell id="IsPKWjWjbbhWOZvx0KAc-57" value="+Stats" style="swimlane;fontStyle=1;align=center;verticalAlign=top;childLayout=stackLayout;horizontal=1;startSize=26;horizontalStack=0;resizeParent=1;resizeParentMax=0;resizeLast=0;collapsible=1;marginBottom=0;" parent="WIyWlLk6GJQsqaUBKTNV-1" vertex="1">
          <mxGeometry x="-2936" y="1392" width="610" height="84" as="geometry">
            <mxRectangle x="1201" y="560" width="60" height="26" as="alternateBounds" />
          </mxGeometry>
        </mxCell>
        <mxCell id="IsPKWjWjbbhWOZvx0KAc-59" value="" style="line;strokeWidth=1;fillColor=none;align=left;verticalAlign=middle;spacingTop=-1;spacingLeft=3;spacingRight=3;rotatable=0;labelPosition=right;points=[];portConstraint=eastwest;" parent="IsPKWjWjbbhWOZvx0KAc-57" vertex="1">
          <mxGeometry y="26" width="610" height="8" as="geometry" />
        </mxCell>
        <mxCell id="IsPKWjWjbbhWOZvx0KAc-60" value="+ getDailyStatById(RestClient, long, String, List&lt;Field&gt;, TimeRange, DatePreset, Breakdown) : DailyStat&#xa;+ getSummaryStatById(RestClient, long, String, List&lt;Field&gt;, TimeRange, DatePreset, Breakdown) : SummaryStat&#xa;+ getSummaryStatByIdList(RestClient, long, String, List&lt;Field&gt;, TimeRange, DataPreset, Breakdown) : SummaryStat" style="text;strokeColor=none;fillColor=none;align=left;verticalAlign=top;spacingLeft=4;spacingRight=4;overflow=hidden;rotatable=0;points=[[0,0.5],[1,0.5]];portConstraint=eastwest;" parent="IsPKWjWjbbhWOZvx0KAc-57" vertex="1">
          <mxGeometry y="34" width="610" height="50" as="geometry" />
        </mxCell>
        <mxCell id="idtFsPLVlB8KMN15-Iu1-48" value="+Device" style="swimlane;fontStyle=1;align=center;verticalAlign=top;childLayout=stackLayout;horizontal=1;startSize=26;horizontalStack=0;resizeParent=1;resizeParentMax=0;resizeLast=0;collapsible=1;marginBottom=0;arcSize=0;" parent="WIyWlLk6GJQsqaUBKTNV-1" vertex="1">
          <mxGeometry x="-1229" y="60" width="310" height="88" as="geometry" />
        </mxCell>
        <mxCell id="idtFsPLVlB8KMN15-Iu1-49" value="+PC &#xa;+MOBILE&#xa;+BOTH" style="text;strokeColor=none;fillColor=none;align=left;verticalAlign=top;spacingLeft=4;spacingRight=4;overflow=hidden;rotatable=0;points=[[0,0.5],[1,0.5]];portConstraint=eastwest;" parent="idtFsPLVlB8KMN15-Iu1-48" vertex="1">
          <mxGeometry y="26" width="310" height="54" as="geometry" />
        </mxCell>
        <mxCell id="idtFsPLVlB8KMN15-Iu1-50" value="" style="line;strokeWidth=1;fillColor=none;align=left;verticalAlign=middle;spacingTop=-1;spacingLeft=3;spacingRight=3;rotatable=0;labelPosition=right;points=[];portConstraint=eastwest;" parent="idtFsPLVlB8KMN15-Iu1-48" vertex="1">
          <mxGeometry y="80" width="310" height="8" as="geometry" />
        </mxCell>
        <mxCell id="IsPKWjWjbbhWOZvx0KAc-144" style="edgeStyle=orthogonalEdgeStyle;orthogonalLoop=1;jettySize=auto;html=1;exitX=0.458;exitY=1.04;exitDx=0;exitDy=0;dashed=1;startFill=0;endArrow=openThin;endFill=0;startSize=14;endSize=12;sourcePerimeterSpacing=1;entryX=0.547;entryY=0.008;entryDx=0;entryDy=0;exitPerimeter=0;entryPerimeter=0;" parent="WIyWlLk6GJQsqaUBKTNV-1" source="idtFsPLVlB8KMN15-Iu1-53" target="idtFsPLVlB8KMN15-Iu1-25" edge="1">
          <mxGeometry relative="1" as="geometry">
            <mxPoint x="-2253" y="680" as="targetPoint" />
            <Array as="points">
              <mxPoint x="-2152" y="1322" />
              <mxPoint x="-2151" y="1322" />
            </Array>
          </mxGeometry>
        </mxCell>
        <mxCell id="idtFsPLVlB8KMN15-Iu1-137" style="edgeStyle=orthogonalEdgeStyle;orthogonalLoop=1;jettySize=auto;html=1;dashed=1;fontSize=11;verticalAlign=middle;endFill=0;endArrow=open;startArrow=none;" parent="WIyWlLk6GJQsqaUBKTNV-1" source="IsPKWjWjbbhWOZvx0KAc-61" target="IsPKWjWjbbhWOZvx0KAc-53" edge="1">
          <mxGeometry relative="1" as="geometry">
            <mxPoint x="-2569" y="710" as="targetPoint" />
          </mxGeometry>
        </mxCell>
        <mxCell id="idtFsPLVlB8KMN15-Iu1-123" value="+KeyAndPosition" style="swimlane;fontStyle=1;align=center;verticalAlign=top;childLayout=stackLayout;horizontal=1;startSize=26;horizontalStack=0;resizeParent=1;resizeParentMax=0;resizeLast=0;collapsible=1;marginBottom=0;" parent="WIyWlLk6GJQsqaUBKTNV-1" vertex="1">
          <mxGeometry x="-670" y="362" width="150" height="76" as="geometry" />
        </mxCell>
        <mxCell id="idtFsPLVlB8KMN15-Iu1-124" value="-key : String&#xa;-position : Integer" style="text;strokeColor=none;fillColor=none;align=left;verticalAlign=top;spacingLeft=4;spacingRight=4;overflow=hidden;rotatable=0;points=[[0,0.5],[1,0.5]];portConstraint=eastwest;" parent="idtFsPLVlB8KMN15-Iu1-123" vertex="1">
          <mxGeometry y="26" width="150" height="42" as="geometry" />
        </mxCell>
        <mxCell id="idtFsPLVlB8KMN15-Iu1-125" value="" style="line;strokeWidth=1;fillColor=none;align=left;verticalAlign=middle;spacingTop=-1;spacingLeft=3;spacingRight=3;rotatable=0;labelPosition=right;points=[];portConstraint=eastwest;" parent="idtFsPLVlB8KMN15-Iu1-123" vertex="1">
          <mxGeometry y="68" width="150" height="8" as="geometry" />
        </mxCell>
        <mxCell id="IsPKWjWjbbhWOZvx0KAc-103" value="+Adgroup" style="swimlane;fontStyle=1;align=center;verticalAlign=top;childLayout=stackLayout;horizontal=1;startSize=26;horizontalStack=0;resizeParent=1;resizeParentMax=0;resizeLast=0;collapsible=1;marginBottom=0;" parent="WIyWlLk6GJQsqaUBKTNV-1" vertex="1">
          <mxGeometry x="-3849" y="300" width="170" height="318" as="geometry">
            <mxRectangle x="500" y="560" width="80" height="26" as="alternateBounds" />
          </mxGeometry>
        </mxCell>
        <mxCell id="IsPKWjWjbbhWOZvx0KAc-104" value="- nccAdgroupId : String&#xa;- customerId : Long&#xa;- nccCampaignId : String&#xa;- mobileChannelId : String&#xa;- pcChannelId : String&#xa;- bidAmt : Integer&#xa;- name : String&#xa;- userLock : Boolean&#xa;- useDailyBudget : Boolean&#xa;- useKeywordPlus : Boolean&#xa;- keywordPlusWeight : Integer&#xa;- useCntNetworkBidWeight : Boolean&#xa;- mobileNetworkBidWeight : Long&#xa;- pcNetworkBidWeight : Long&#xa;- dailyBudget : Long&#xa;- regTm : Date&#xa;- editTm : Date&#xa;- targets : List&lt;Target&gt;&#xa;- status : String&#xa;- statusReason : String&#xa;" style="text;strokeColor=none;fillColor=none;align=left;verticalAlign=top;spacingLeft=4;spacingRight=4;overflow=hidden;rotatable=0;points=[[0,0.5],[1,0.5]];portConstraint=eastwest;" parent="IsPKWjWjbbhWOZvx0KAc-103" vertex="1">
          <mxGeometry y="26" width="170" height="284" as="geometry" />
        </mxCell>
        <mxCell id="IsPKWjWjbbhWOZvx0KAc-105" value="" style="line;strokeWidth=1;fillColor=none;align=left;verticalAlign=middle;spacingTop=-1;spacingLeft=3;spacingRight=3;rotatable=0;labelPosition=right;points=[];portConstraint=eastwest;" parent="IsPKWjWjbbhWOZvx0KAc-103" vertex="1">
          <mxGeometry y="310" width="170" height="8" as="geometry" />
        </mxCell>
        <mxCell id="IsPKWjWjbbhWOZvx0KAc-111" value="" style="endArrow=open;html=1;endSize=12;startArrow=diamondThin;startSize=14;startFill=1;edgeStyle=orthogonalEdgeStyle;entryX=0.5;entryY=1;entryDx=0;entryDy=0;exitX=0.5;exitY=0;exitDx=0;exitDy=0;sourcePerimeterSpacing=1;" parent="WIyWlLk6GJQsqaUBKTNV-1" source="IsPKWjWjbbhWOZvx0KAc-103" target="IsPKWjWjbbhWOZvx0KAc-8" edge="1">
          <mxGeometry relative="1" as="geometry">
            <mxPoint x="-3719" y="700" as="sourcePoint" />
            <mxPoint x="-3559" y="700" as="targetPoint" />
          </mxGeometry>
        </mxCell>
        <mxCell id="IsPKWjWjbbhWOZvx0KAc-112" value="1" style="edgeLabel;resizable=0;html=1;align=left;verticalAlign=top;" parent="IsPKWjWjbbhWOZvx0KAc-111" connectable="0" vertex="1">
          <mxGeometry x="-1" relative="1" as="geometry">
            <mxPoint x="2" y="-39" as="offset" />
          </mxGeometry>
        </mxCell>
        <mxCell id="IsPKWjWjbbhWOZvx0KAc-113" value="*" style="edgeLabel;resizable=0;html=1;align=right;verticalAlign=top;" parent="IsPKWjWjbbhWOZvx0KAc-111" connectable="0" vertex="1">
          <mxGeometry x="1" relative="1" as="geometry">
            <mxPoint x="10" y="12" as="offset" />
          </mxGeometry>
        </mxCell>
        <mxCell id="IsPKWjWjbbhWOZvx0KAc-115" value="" style="endArrow=open;html=1;endSize=12;startArrow=diamondThin;startSize=14;startFill=1;edgeStyle=orthogonalEdgeStyle;entryX=0.5;entryY=1;entryDx=0;entryDy=0;exitX=0.485;exitY=-0.001;exitDx=0;exitDy=0;exitPerimeter=0;" parent="WIyWlLk6GJQsqaUBKTNV-1" source="7ZvF9bT9IcwRX-JwGskH-17" edge="1">
          <mxGeometry relative="1" as="geometry">
            <mxPoint x="-4079" y="292" as="sourcePoint" />
            <mxPoint x="-4199" y="335" as="targetPoint" />
            <Array as="points">
              <mxPoint x="-4092" y="372" />
              <mxPoint x="-4199" y="372" />
            </Array>
          </mxGeometry>
        </mxCell>
        <mxCell id="IsPKWjWjbbhWOZvx0KAc-116" value="1" style="edgeLabel;resizable=0;html=1;align=left;verticalAlign=top;" parent="IsPKWjWjbbhWOZvx0KAc-115" connectable="0" vertex="1">
          <mxGeometry x="-1" relative="1" as="geometry">
            <mxPoint y="-41" as="offset" />
          </mxGeometry>
        </mxCell>
        <mxCell id="IsPKWjWjbbhWOZvx0KAc-117" value="*" style="edgeLabel;resizable=0;html=1;align=right;verticalAlign=top;" parent="IsPKWjWjbbhWOZvx0KAc-115" connectable="0" vertex="1">
          <mxGeometry x="1" relative="1" as="geometry">
            <mxPoint x="8" y="8" as="offset" />
          </mxGeometry>
        </mxCell>
        <mxCell id="IsPKWjWjbbhWOZvx0KAc-118" value="" style="endArrow=open;html=1;endSize=12;startArrow=diamondThin;startSize=14;startFill=1;edgeStyle=orthogonalEdgeStyle;" parent="WIyWlLk6GJQsqaUBKTNV-1" edge="1">
          <mxGeometry x="-0.0391" y="-10" relative="1" as="geometry">
            <mxPoint x="-4354" y="422" as="sourcePoint" />
            <mxPoint x="-4229" y="335" as="targetPoint" />
            <mxPoint as="offset" />
            <Array as="points">
              <mxPoint x="-4354" y="372" />
              <mxPoint x="-4229" y="372" />
            </Array>
          </mxGeometry>
        </mxCell>
        <mxCell id="IsPKWjWjbbhWOZvx0KAc-119" value="1" style="edgeLabel;resizable=0;html=1;align=left;verticalAlign=top;labelBackgroundColor=default;" parent="IsPKWjWjbbhWOZvx0KAc-118" connectable="0" vertex="1">
          <mxGeometry x="-1" relative="1" as="geometry">
            <mxPoint y="-41" as="offset" />
          </mxGeometry>
        </mxCell>
        <mxCell id="IsPKWjWjbbhWOZvx0KAc-120" value="*" style="edgeLabel;resizable=0;html=1;align=right;verticalAlign=top;" parent="IsPKWjWjbbhWOZvx0KAc-118" connectable="0" vertex="1">
          <mxGeometry x="1" relative="1" as="geometry">
            <mxPoint x="-2" y="9" as="offset" />
          </mxGeometry>
        </mxCell>
        <mxCell id="idtFsPLVlB8KMN15-Iu1-170" value="" style="endArrow=open;html=1;endSize=12;startArrow=diamondThin;startSize=14;startFill=1;edgeStyle=orthogonalEdgeStyle;fontSize=12;strokeColor=#0F0F0F;exitX=0.586;exitY=-0.005;exitDx=0;exitDy=0;exitPerimeter=0;" parent="WIyWlLk6GJQsqaUBKTNV-1" source="-4e21ovLT8-M-5KT2Jtu-39" target="idtFsPLVlB8KMN15-Iu1-30" edge="1">
          <mxGeometry x="-0.0769" relative="1" as="geometry">
            <mxPoint x="-596.9699999999998" y="459.9999999999999" as="sourcePoint" />
            <mxPoint x="-749.0044827586203" y="339.9999999999999" as="targetPoint" />
            <mxPoint as="offset" />
            <Array as="points">
              <mxPoint x="-233" y="612" />
              <mxPoint x="-134" y="612" />
            </Array>
          </mxGeometry>
        </mxCell>
        <mxCell id="idtFsPLVlB8KMN15-Iu1-171" value="1" style="edgeLabel;resizable=0;html=1;align=left;verticalAlign=top;fontSize=12;" parent="idtFsPLVlB8KMN15-Iu1-170" connectable="0" vertex="1">
          <mxGeometry x="-1" relative="1" as="geometry" />
        </mxCell>
        <mxCell id="idtFsPLVlB8KMN15-Iu1-172" value="*" style="edgeLabel;resizable=0;html=1;align=right;verticalAlign=top;fontSize=12;" parent="idtFsPLVlB8KMN15-Iu1-170" connectable="0" vertex="1">
          <mxGeometry x="1" relative="1" as="geometry" />
        </mxCell>
        <mxCell id="idtFsPLVlB8KMN15-Iu1-176" value="" style="endArrow=open;html=1;endSize=12;startArrow=diamondThin;startSize=14;startFill=1;edgeStyle=orthogonalEdgeStyle;fontSize=12;strokeColor=#0F0F0F;exitX=0.5;exitY=0;exitDx=0;exitDy=0;" parent="WIyWlLk6GJQsqaUBKTNV-1" source="idtFsPLVlB8KMN15-Iu1-30" target="idtFsPLVlB8KMN15-Iu1-48" edge="1">
          <mxGeometry x="-0.0769" relative="1" as="geometry">
            <mxPoint x="-806.9699999999993" y="449.9999999999999" as="sourcePoint" />
            <mxPoint x="-699" y="-178" as="targetPoint" />
            <mxPoint as="offset" />
            <Array as="points">
              <mxPoint x="-134" y="104" />
            </Array>
          </mxGeometry>
        </mxCell>
        <mxCell id="idtFsPLVlB8KMN15-Iu1-177" value="1" style="edgeLabel;resizable=0;html=1;align=left;verticalAlign=top;fontSize=12;" parent="idtFsPLVlB8KMN15-Iu1-176" connectable="0" vertex="1">
          <mxGeometry x="-1" relative="1" as="geometry" />
        </mxCell>
        <mxCell id="idtFsPLVlB8KMN15-Iu1-178" value="*" style="edgeLabel;resizable=0;html=1;align=right;verticalAlign=top;fontSize=12;" parent="idtFsPLVlB8KMN15-Iu1-176" connectable="0" vertex="1">
          <mxGeometry x="1" relative="1" as="geometry" />
        </mxCell>
        <mxCell id="idtFsPLVlB8KMN15-Iu1-183" value="*" style="edgeLabel;resizable=0;html=1;align=right;verticalAlign=top;fontSize=12;" parent="WIyWlLk6GJQsqaUBKTNV-1" connectable="0" vertex="1">
          <mxGeometry x="-776" y="510.2833356597803" as="geometry" />
        </mxCell>
        <mxCell id="idtFsPLVlB8KMN15-Iu1-184" value="" style="endArrow=open;html=1;endSize=12;startArrow=diamondThin;startSize=14;startFill=1;edgeStyle=orthogonalEdgeStyle;fontSize=12;strokeColor=#0F0F0F;" parent="WIyWlLk6GJQsqaUBKTNV-1" source="idtFsPLVlB8KMN15-Iu1-10" target="idtFsPLVlB8KMN15-Iu1-48" edge="1">
          <mxGeometry x="-0.0769" relative="1" as="geometry">
            <mxPoint x="-1288.7000000000007" y="570.1300000000003" as="sourcePoint" />
            <mxPoint x="-1139" y="242" as="targetPoint" />
            <mxPoint as="offset" />
            <Array as="points">
              <mxPoint x="-509" y="492" />
              <mxPoint x="-679" y="492" />
              <mxPoint x="-679" y="230" />
              <mxPoint x="-960" y="230" />
            </Array>
          </mxGeometry>
        </mxCell>
        <mxCell id="idtFsPLVlB8KMN15-Iu1-185" value="1" style="edgeLabel;resizable=0;html=1;align=left;verticalAlign=top;fontSize=12;" parent="idtFsPLVlB8KMN15-Iu1-184" connectable="0" vertex="1">
          <mxGeometry x="-1" relative="1" as="geometry">
            <mxPoint x="15" y="-4" as="offset" />
          </mxGeometry>
        </mxCell>
        <mxCell id="idtFsPLVlB8KMN15-Iu1-186" value="*" style="edgeLabel;resizable=0;html=1;align=right;verticalAlign=top;fontSize=12;" parent="idtFsPLVlB8KMN15-Iu1-184" connectable="0" vertex="1">
          <mxGeometry x="1" relative="1" as="geometry">
            <mxPoint y="12" as="offset" />
          </mxGeometry>
        </mxCell>
        <mxCell id="idtFsPLVlB8KMN15-Iu1-190" value="" style="endArrow=open;html=1;endSize=12;startArrow=diamondThin;startSize=14;startFill=1;edgeStyle=orthogonalEdgeStyle;fontSize=12;strokeColor=#0F0F0F;" parent="WIyWlLk6GJQsqaUBKTNV-1" source="idtFsPLVlB8KMN15-Iu1-19" target="idtFsPLVlB8KMN15-Iu1-48" edge="1">
          <mxGeometry x="-0.0769" relative="1" as="geometry">
            <mxPoint x="-1689" y="429.82000000000016" as="sourcePoint" />
            <mxPoint x="-1079" y="242" as="targetPoint" />
            <mxPoint as="offset" />
            <Array as="points">
              <mxPoint x="-1469" y="250" />
              <mxPoint x="-1119" y="250" />
            </Array>
          </mxGeometry>
        </mxCell>
        <mxCell id="idtFsPLVlB8KMN15-Iu1-191" value="1" style="edgeLabel;resizable=0;html=1;align=left;verticalAlign=top;fontSize=12;" parent="idtFsPLVlB8KMN15-Iu1-190" connectable="0" vertex="1">
          <mxGeometry x="-1" relative="1" as="geometry">
            <mxPoint x="-9" y="-38" as="offset" />
          </mxGeometry>
        </mxCell>
        <mxCell id="idtFsPLVlB8KMN15-Iu1-192" value="*" style="edgeLabel;resizable=0;html=1;align=right;verticalAlign=top;fontSize=12;" parent="idtFsPLVlB8KMN15-Iu1-190" connectable="0" vertex="1">
          <mxGeometry x="1" relative="1" as="geometry" />
        </mxCell>
        <mxCell id="idtFsPLVlB8KMN15-Iu1-196" value="" style="endArrow=open;html=1;endSize=12;startArrow=diamondThin;startSize=14;startFill=1;edgeStyle=orthogonalEdgeStyle;fontSize=12;strokeColor=#0F0F0F;" parent="WIyWlLk6GJQsqaUBKTNV-1" source="-4e21ovLT8-M-5KT2Jtu-51" edge="1">
          <mxGeometry x="-0.0769" relative="1" as="geometry">
            <mxPoint x="-739" y="730" as="sourcePoint" />
            <mxPoint x="-1009" y="262" as="targetPoint" />
            <mxPoint as="offset" />
            <Array as="points">
              <mxPoint x="-699" y="200" />
              <mxPoint x="-1039" y="200" />
            </Array>
          </mxGeometry>
        </mxCell>
        <mxCell id="idtFsPLVlB8KMN15-Iu1-197" value="1" style="edgeLabel;resizable=0;html=1;align=left;verticalAlign=top;fontSize=12;" parent="idtFsPLVlB8KMN15-Iu1-196" connectable="0" vertex="1">
          <mxGeometry x="-1" relative="1" as="geometry" />
        </mxCell>
        <mxCell id="idtFsPLVlB8KMN15-Iu1-198" value="*" style="edgeLabel;resizable=0;html=1;align=right;verticalAlign=top;fontSize=12;" parent="idtFsPLVlB8KMN15-Iu1-196" connectable="0" vertex="1">
          <mxGeometry x="1" relative="1" as="geometry" />
        </mxCell>
        <mxCell id="idtFsPLVlB8KMN15-Iu1-202" value="" style="endArrow=open;html=1;endSize=12;startArrow=none;startSize=14;startFill=1;edgeStyle=orthogonalEdgeStyle;fontSize=12;strokeColor=#0F0F0F;exitX=0.5;exitY=0;exitDx=0;exitDy=0;entryX=0.603;entryY=1;entryDx=0;entryDy=0;entryPerimeter=0;" parent="WIyWlLk6GJQsqaUBKTNV-1" source="idtFsPLVlB8KMN15-Iu1-39" target="idtFsPLVlB8KMN15-Iu1-50" edge="1">
          <mxGeometry x="-0.0769" relative="1" as="geometry">
            <mxPoint x="-1913" y="440" as="sourcePoint" />
            <mxPoint x="-1673" y="340.0000000000001" as="targetPoint" />
            <mxPoint as="offset" />
            <Array as="points">
              <mxPoint x="-769" y="300" />
              <mxPoint x="-1000" y="300" />
            </Array>
          </mxGeometry>
        </mxCell>
        <mxCell id="idtFsPLVlB8KMN15-Iu1-204" value="*" style="edgeLabel;resizable=0;html=1;align=right;verticalAlign=top;fontSize=12;" parent="idtFsPLVlB8KMN15-Iu1-202" connectable="0" vertex="1">
          <mxGeometry x="1" relative="1" as="geometry" />
        </mxCell>
        <mxCell id="IsPKWjWjbbhWOZvx0KAc-61" value="+Stat" style="swimlane;fontStyle=1;align=center;verticalAlign=top;childLayout=stackLayout;horizontal=1;startSize=26;horizontalStack=0;resizeParent=1;resizeParentMax=0;resizeLast=0;collapsible=1;marginBottom=0;" parent="WIyWlLk6GJQsqaUBKTNV-1" vertex="1">
          <mxGeometry x="-2469" y="463" width="190" height="92" as="geometry">
            <mxRectangle x="1341" y="560" width="60" height="26" as="alternateBounds" />
          </mxGeometry>
        </mxCell>
        <mxCell id="IsPKWjWjbbhWOZvx0KAc-62" value="+ dailyStat : DailyStat&#xa;+ summaryStat : SummaryStat" style="text;strokeColor=none;fillColor=none;align=left;verticalAlign=top;spacingLeft=4;spacingRight=4;overflow=hidden;rotatable=0;points=[[0,0.5],[1,0.5]];portConstraint=eastwest;" parent="IsPKWjWjbbhWOZvx0KAc-61" vertex="1">
          <mxGeometry y="26" width="190" height="32" as="geometry" />
        </mxCell>
        <mxCell id="IsPKWjWjbbhWOZvx0KAc-63" value="" style="line;strokeWidth=1;fillColor=none;align=left;verticalAlign=middle;spacingTop=-1;spacingLeft=3;spacingRight=3;rotatable=0;labelPosition=right;points=[];portConstraint=eastwest;" parent="IsPKWjWjbbhWOZvx0KAc-61" vertex="1">
          <mxGeometry y="58" width="190" height="8" as="geometry" />
        </mxCell>
        <mxCell id="IsPKWjWjbbhWOZvx0KAc-64" value="+ method(type): type" style="text;strokeColor=none;fillColor=none;align=left;verticalAlign=top;spacingLeft=4;spacingRight=4;overflow=hidden;rotatable=0;points=[[0,0.5],[1,0.5]];portConstraint=eastwest;" parent="IsPKWjWjbbhWOZvx0KAc-61" vertex="1">
          <mxGeometry y="66" width="190" height="26" as="geometry" />
        </mxCell>
        <mxCell id="IsPKWjWjbbhWOZvx0KAc-44" value="+AdExtensions" style="swimlane;fontStyle=1;align=center;verticalAlign=top;childLayout=stackLayout;horizontal=1;startSize=26;horizontalStack=0;resizeParent=1;resizeParentMax=0;resizeLast=0;collapsible=1;marginBottom=0;" parent="WIyWlLk6GJQsqaUBKTNV-1" vertex="1">
          <mxGeometry x="-3309" y="1186" width="350" height="126" as="geometry">
            <mxRectangle x="1060" y="560" width="110" height="26" as="alternateBounds" />
          </mxGeometry>
        </mxCell>
        <mxCell id="IsPKWjWjbbhWOZvx0KAc-45" value="- AD_EXTENSIONS_PATH : String" style="text;strokeColor=none;fillColor=none;align=left;verticalAlign=top;spacingLeft=4;spacingRight=4;overflow=hidden;rotatable=0;points=[[0,0.5],[1,0.5]];portConstraint=eastwest;" parent="IsPKWjWjbbhWOZvx0KAc-44" vertex="1">
          <mxGeometry y="26" width="350" height="26" as="geometry" />
        </mxCell>
        <mxCell id="IsPKWjWjbbhWOZvx0KAc-46" value="" style="line;strokeWidth=1;fillColor=none;align=left;verticalAlign=middle;spacingTop=-1;spacingLeft=3;spacingRight=3;rotatable=0;labelPosition=right;points=[];portConstraint=eastwest;" parent="IsPKWjWjbbhWOZvx0KAc-44" vertex="1">
          <mxGeometry y="52" width="350" height="8" as="geometry" />
        </mxCell>
        <mxCell id="IsPKWjWjbbhWOZvx0KAc-47" value="+ create(RestClient, long, AdExtension) : AdExtension&#xa;+ delete(RestClient, long, String) : void&#xa;+ listByOwnerId(RestClient, long, String) : AdExtension[]&#xa;+ update(RestClient, long, String, AdExtension) : AdExtension" style="text;strokeColor=none;fillColor=none;align=left;verticalAlign=top;spacingLeft=4;spacingRight=4;overflow=hidden;rotatable=0;points=[[0,0.5],[1,0.5]];portConstraint=eastwest;" parent="IsPKWjWjbbhWOZvx0KAc-44" vertex="1">
          <mxGeometry y="60" width="350" height="66" as="geometry" />
        </mxCell>
        <mxCell id="idtFsPLVlB8KMN15-Iu1-51" value="+MasterReports" style="swimlane;fontStyle=1;align=center;verticalAlign=top;childLayout=stackLayout;horizontal=1;startSize=26;horizontalStack=0;resizeParent=1;resizeParentMax=0;resizeLast=0;collapsible=1;marginBottom=0;" parent="WIyWlLk6GJQsqaUBKTNV-1" vertex="1">
          <mxGeometry x="-2349" y="1167" width="430" height="134" as="geometry">
            <mxRectangle x="1746" y="606" width="120" height="26" as="alternateBounds" />
          </mxGeometry>
        </mxCell>
        <mxCell id="idtFsPLVlB8KMN15-Iu1-52" value="" style="line;strokeWidth=1;fillColor=none;align=left;verticalAlign=middle;spacingTop=-1;spacingLeft=3;spacingRight=3;rotatable=0;labelPosition=right;points=[];portConstraint=eastwest;" parent="idtFsPLVlB8KMN15-Iu1-51" vertex="1">
          <mxGeometry y="26" width="430" height="8" as="geometry" />
        </mxCell>
        <mxCell id="idtFsPLVlB8KMN15-Iu1-53" value="+CreateDeltaMasterReportJob(RestClient, long, Item, String) : MasterReport&#xa;+CreateFullMasterReportJob(RestClient, long , term) : MasterReport&#xa;+DeleteAllMasterReporJobs(RestClient, long) : String&#xa;+DeleteMasterResportJob(RestClient, long, String) : String&#xa;+GetListOfMasterReportJobs(RestClient, long) : MasterReport[]&#xa;+GetMasterReportJob(RestClient ,long, String) : MasterReport" style="text;strokeColor=none;fillColor=none;align=left;verticalAlign=top;spacingLeft=4;spacingRight=4;overflow=hidden;rotatable=0;points=[[0,0.5],[1,0.5]];portConstraint=eastwest;" parent="idtFsPLVlB8KMN15-Iu1-51" vertex="1">
          <mxGeometry y="34" width="430" height="100" as="geometry" />
        </mxCell>
        <mxCell id="eDBWypeusqY1K3dEx8E--3" value="" style="edgeStyle=orthogonalEdgeStyle;orthogonalLoop=1;jettySize=auto;html=1;dashed=1;endArrow=none;endFill=0;entryX=1;entryY=0.376;entryDx=0;entryDy=0;entryPerimeter=0;" parent="WIyWlLk6GJQsqaUBKTNV-1" source="-4e21ovLT8-M-5KT2Jtu-30" target="idtFsPLVlB8KMN15-Iu1-53" edge="1">
          <mxGeometry relative="1" as="geometry">
            <mxPoint x="-1681" y="1241" as="sourcePoint" />
            <mxPoint x="-1879" y="1235" as="targetPoint" />
            <Array as="points">
              <mxPoint x="-1919" y="1239" />
            </Array>
          </mxGeometry>
        </mxCell>
        <mxCell id="LyYTvEO3KI667NE_mtn4-5" style="edgeStyle=orthogonalEdgeStyle;orthogonalLoop=1;jettySize=auto;html=1;dashed=1;endArrow=open;endFill=0;" edge="1" parent="WIyWlLk6GJQsqaUBKTNV-1" source="-4e21ovLT8-M-5KT2Jtu-23" target="idtFsPLVlB8KMN15-Iu1-16">
          <mxGeometry relative="1" as="geometry">
            <Array as="points">
              <mxPoint x="-439" y="1052" />
              <mxPoint x="-1164" y="1052" />
            </Array>
          </mxGeometry>
        </mxCell>
        <mxCell id="LyYTvEO3KI667NE_mtn4-12" style="edgeStyle=orthogonalEdgeStyle;orthogonalLoop=1;jettySize=auto;html=1;dashed=1;endArrow=open;endFill=0;exitX=0.719;exitY=0.014;exitDx=0;exitDy=0;exitPerimeter=0;" edge="1" parent="WIyWlLk6GJQsqaUBKTNV-1" source="-4e21ovLT8-M-5KT2Jtu-23" target="idtFsPLVlB8KMN15-Iu1-2">
          <mxGeometry relative="1" as="geometry">
            <Array as="points">
              <mxPoint x="-575" y="1122" />
              <mxPoint x="-1656" y="1122" />
            </Array>
          </mxGeometry>
        </mxCell>
        <mxCell id="-4e21ovLT8-M-5KT2Jtu-23" value="+Estimate" style="swimlane;fontStyle=1;align=center;verticalAlign=top;childLayout=stackLayout;horizontal=1;startSize=26;horizontalStack=0;resizeParent=1;resizeParentMax=0;resizeLast=0;collapsible=1;marginBottom=0;flipH=1;flipV=0;" parent="WIyWlLk6GJQsqaUBKTNV-1" vertex="1">
          <mxGeometry x="-769" y="1166" width="690" height="110" as="geometry" />
        </mxCell>
        <mxCell id="-4e21ovLT8-M-5KT2Jtu-25" value="" style="line;strokeWidth=1;fillColor=none;align=left;verticalAlign=middle;spacingTop=-1;spacingLeft=3;spacingRight=3;rotatable=0;labelPosition=right;points=[];portConstraint=eastwest;" parent="-4e21ovLT8-M-5KT2Jtu-23" vertex="1">
          <mxGeometry y="26" width="690" height="8" as="geometry" />
        </mxCell>
        <mxCell id="-4e21ovLT8-M-5KT2Jtu-26" value="+GetExposureMinimumeBid(RestClient, long, IDType, RequestBIdByStatisticsDistribution) : ResponseBidByStatisticsDistribution&#xa;+GetPerformance(RestClient, long, IDType, RequestPerformance) : ResponsePerformance&#xa;+GetPerformanceBulk(RestClient, long, RequestPerformanceBulk) : RequestPerformanceBulk&#xa;+getAveragePositionBid(RestClient, long, IDType, RequestAveragePostionBid) : RequestAveragePostionBid&#xa;+getMedianBid(RestClient, long, IDType,RequestBidByStatisticsDistribution) : RequestBidByStatisticsDistribution" style="text;strokeColor=none;fillColor=none;align=left;verticalAlign=top;spacingLeft=4;spacingRight=4;overflow=hidden;rotatable=0;points=[[0,0.5],[1,0.5]];portConstraint=eastwest;" parent="-4e21ovLT8-M-5KT2Jtu-23" vertex="1">
          <mxGeometry y="34" width="690" height="76" as="geometry" />
        </mxCell>
        <mxCell id="LyYTvEO3KI667NE_mtn4-26" style="edgeStyle=orthogonalEdgeStyle;orthogonalLoop=1;jettySize=auto;html=1;fontSize=12;startArrow=diamondThin;startFill=1;endArrow=open;startSize=14;endSize=12;strokeColor=#0F0F0F;" edge="1" parent="WIyWlLk6GJQsqaUBKTNV-1" source="idtFsPLVlB8KMN15-Iu1-16" target="idtFsPLVlB8KMN15-Iu1-42">
          <mxGeometry relative="1" as="geometry">
            <Array as="points">
              <mxPoint x="-1164" y="612" />
              <mxPoint x="-979" y="612" />
            </Array>
          </mxGeometry>
        </mxCell>
        <mxCell id="idtFsPLVlB8KMN15-Iu1-16" value="+ResponsePerformanceBulk" style="swimlane;fontStyle=1;align=center;verticalAlign=top;childLayout=stackLayout;horizontal=1;startSize=26;horizontalStack=0;resizeParent=1;resizeParentMax=0;resizeLast=0;collapsible=1;marginBottom=0;arcSize=0;" parent="WIyWlLk6GJQsqaUBKTNV-1" vertex="1">
          <mxGeometry x="-1269" y="731" width="210" height="58" as="geometry" />
        </mxCell>
        <mxCell id="idtFsPLVlB8KMN15-Iu1-17" value="-items : List&lt;BulkPerformance&gt;" style="text;strokeColor=none;fillColor=none;align=left;verticalAlign=top;spacingLeft=4;spacingRight=4;overflow=hidden;rotatable=0;points=[[0,0.5],[1,0.5]];portConstraint=eastwest;" parent="idtFsPLVlB8KMN15-Iu1-16" vertex="1">
          <mxGeometry y="26" width="210" height="24" as="geometry" />
        </mxCell>
        <mxCell id="idtFsPLVlB8KMN15-Iu1-18" value="" style="line;strokeWidth=1;fillColor=none;align=left;verticalAlign=middle;spacingTop=-1;spacingLeft=3;spacingRight=3;rotatable=0;labelPosition=right;points=[];portConstraint=eastwest;" parent="idtFsPLVlB8KMN15-Iu1-16" vertex="1">
          <mxGeometry y="50" width="210" height="8" as="geometry" />
        </mxCell>
        <mxCell id="IsPKWjWjbbhWOZvx0KAc-24" value="+Schedules" style="swimlane;fontStyle=1;align=center;verticalAlign=top;childLayout=stackLayout;horizontal=1;startSize=26;horizontalStack=0;resizeParent=1;resizeParentMax=0;resizeLast=0;collapsible=1;marginBottom=0;" parent="WIyWlLk6GJQsqaUBKTNV-1" vertex="1">
          <mxGeometry x="-3899" y="1010" width="100" height="106" as="geometry">
            <mxRectangle x="780" y="560" width="90" height="26" as="alternateBounds" />
          </mxGeometry>
        </mxCell>
        <mxCell id="IsPKWjWjbbhWOZvx0KAc-25" value="+ field: type" style="text;strokeColor=none;fillColor=none;align=left;verticalAlign=top;spacingLeft=4;spacingRight=4;overflow=hidden;rotatable=0;points=[[0,0.5],[1,0.5]];portConstraint=eastwest;" parent="IsPKWjWjbbhWOZvx0KAc-24" vertex="1">
          <mxGeometry y="26" width="100" height="26" as="geometry" />
        </mxCell>
        <mxCell id="IsPKWjWjbbhWOZvx0KAc-26" value="" style="line;strokeWidth=1;fillColor=none;align=left;verticalAlign=middle;spacingTop=-1;spacingLeft=3;spacingRight=3;rotatable=0;labelPosition=right;points=[];portConstraint=eastwest;" parent="IsPKWjWjbbhWOZvx0KAc-24" vertex="1">
          <mxGeometry y="52" width="100" height="8" as="geometry" />
        </mxCell>
        <mxCell id="IsPKWjWjbbhWOZvx0KAc-27" value="+ builder() : ScheduleBuilder&#xa;+ everyDayAndHour() : Map&lt;String, Object&gt;" style="text;strokeColor=none;fillColor=none;align=left;verticalAlign=top;spacingLeft=4;spacingRight=4;overflow=hidden;rotatable=0;points=[[0,0.5],[1,0.5]];portConstraint=eastwest;" parent="IsPKWjWjbbhWOZvx0KAc-24" vertex="1">
          <mxGeometry y="60" width="100" height="46" as="geometry" />
        </mxCell>
        <mxCell id="LyYTvEO3KI667NE_mtn4-29" style="edgeStyle=orthogonalEdgeStyle;orthogonalLoop=1;jettySize=auto;html=1;fontSize=12;startArrow=diamondThin;startFill=1;endArrow=open;startSize=14;endSize=12;strokeColor=#0F0F0F;" edge="1" parent="WIyWlLk6GJQsqaUBKTNV-1" source="idtFsPLVlB8KMN15-Iu1-7" target="idtFsPLVlB8KMN15-Iu1-39">
          <mxGeometry relative="1" as="geometry">
            <Array as="points">
              <mxPoint x="-919" y="572" />
              <mxPoint x="-770" y="572" />
            </Array>
          </mxGeometry>
        </mxCell>
        <mxCell id="idtFsPLVlB8KMN15-Iu1-7" value="+ResponsePerformance" style="swimlane;fontStyle=1;align=center;verticalAlign=top;childLayout=stackLayout;horizontal=1;startSize=26;horizontalStack=0;resizeParent=1;resizeParentMax=0;resizeLast=0;collapsible=1;marginBottom=0;" parent="WIyWlLk6GJQsqaUBKTNV-1" vertex="1">
          <mxGeometry x="-1009" y="730" width="158" height="106" as="geometry" />
        </mxCell>
        <mxCell id="idtFsPLVlB8KMN15-Iu1-8" value="-device  : Device&#xa;-keywordplus : Boolean&#xa;-keyword : String&#xa;-nccKeywordId : String&#xa;-estimate : List&lt;Performance&gt;&#xa;" style="text;strokeColor=none;fillColor=none;align=left;verticalAlign=top;spacingLeft=4;spacingRight=4;overflow=hidden;rotatable=0;points=[[0,0.5],[1,0.5]];portConstraint=eastwest;" parent="idtFsPLVlB8KMN15-Iu1-7" vertex="1">
          <mxGeometry y="26" width="158" height="72" as="geometry" />
        </mxCell>
        <mxCell id="idtFsPLVlB8KMN15-Iu1-9" value="" style="line;strokeWidth=1;fillColor=none;align=left;verticalAlign=middle;spacingTop=-1;spacingLeft=3;spacingRight=3;rotatable=0;labelPosition=right;points=[];portConstraint=eastwest;" parent="idtFsPLVlB8KMN15-Iu1-7" vertex="1">
          <mxGeometry y="98" width="158" height="8" as="geometry" />
        </mxCell>
        <mxCell id="idtFsPLVlB8KMN15-Iu1-2" value="+RequestPerformance" style="swimlane;fontStyle=1;align=center;verticalAlign=top;childLayout=stackLayout;horizontal=1;startSize=26;horizontalStack=0;resizeParent=1;resizeParentMax=0;resizeLast=0;collapsible=1;marginBottom=0;arcSize=0;" parent="WIyWlLk6GJQsqaUBKTNV-1" vertex="1">
          <mxGeometry x="-1729" y="730" width="145" height="98" as="geometry" />
        </mxCell>
        <mxCell id="idtFsPLVlB8KMN15-Iu1-3" value="-device : Device&#xa;-keywordplus : boolean&#xa;-key : String&#xa;-bids : List&lt;integer&gt;" style="text;strokeColor=none;fillColor=none;align=left;verticalAlign=top;spacingLeft=4;spacingRight=4;overflow=hidden;rotatable=0;points=[[0,0.5],[1,0.5]];portConstraint=eastwest;" parent="idtFsPLVlB8KMN15-Iu1-2" vertex="1">
          <mxGeometry y="26" width="145" height="64" as="geometry" />
        </mxCell>
        <mxCell id="idtFsPLVlB8KMN15-Iu1-5" value="" style="line;strokeWidth=1;fillColor=none;align=left;verticalAlign=middle;spacingTop=-1;spacingLeft=3;spacingRight=3;rotatable=0;labelPosition=right;points=[];portConstraint=eastwest;" parent="idtFsPLVlB8KMN15-Iu1-2" vertex="1">
          <mxGeometry y="90" width="145" height="8" as="geometry" />
        </mxCell>
        <mxCell id="LyYTvEO3KI667NE_mtn4-31" style="edgeStyle=orthogonalEdgeStyle;orthogonalLoop=1;jettySize=auto;html=1;fontSize=12;startArrow=diamondThin;startFill=1;endArrow=open;startSize=14;endSize=12;strokeColor=#0F0F0F;" edge="1" parent="WIyWlLk6GJQsqaUBKTNV-1" source="idtFsPLVlB8KMN15-Iu1-42" target="idtFsPLVlB8KMN15-Iu1-48">
          <mxGeometry relative="1" as="geometry">
            <mxPoint x="-1119" y="-591" as="targetPoint" />
            <Array as="points">
              <mxPoint x="-954" y="240" />
              <mxPoint x="-1079" y="240" />
            </Array>
          </mxGeometry>
        </mxCell>
        <mxCell id="idtFsPLVlB8KMN15-Iu1-42" value="+BulkPerformance" style="swimlane;fontStyle=1;align=center;verticalAlign=top;childLayout=stackLayout;horizontal=1;startSize=26;horizontalStack=0;resizeParent=1;resizeParentMax=0;resizeLast=0;collapsible=1;marginBottom=0;" parent="WIyWlLk6GJQsqaUBKTNV-1" vertex="1">
          <mxGeometry x="-1029" y="363" width="150" height="154" as="geometry">
            <mxRectangle x="2960" y="170" width="140" height="26" as="alternateBounds" />
          </mxGeometry>
        </mxCell>
        <mxCell id="idtFsPLVlB8KMN15-Iu1-43" value="-keyword : String&#xa;-bid : Integer&#xa;-keywordplus : Boolean&#xa;-device : Device&#xa;-clicks : Long&#xa;-impressions : Long&#xa;-cost : Long&#xa;" style="text;strokeColor=none;fillColor=none;align=left;verticalAlign=top;spacingLeft=4;spacingRight=4;overflow=hidden;rotatable=0;points=[[0,0.5],[1,0.5]];portConstraint=eastwest;" parent="idtFsPLVlB8KMN15-Iu1-42" vertex="1">
          <mxGeometry y="26" width="150" height="120" as="geometry" />
        </mxCell>
        <mxCell id="idtFsPLVlB8KMN15-Iu1-44" value="" style="line;strokeWidth=1;fillColor=none;align=left;verticalAlign=middle;spacingTop=-1;spacingLeft=3;spacingRight=3;rotatable=0;labelPosition=right;points=[];portConstraint=eastwest;" parent="idtFsPLVlB8KMN15-Iu1-42" vertex="1">
          <mxGeometry y="146" width="150" height="8" as="geometry" />
        </mxCell>
        <mxCell id="idtFsPLVlB8KMN15-Iu1-45" value="+PeriodType" style="swimlane;fontStyle=1;align=center;verticalAlign=top;childLayout=stackLayout;horizontal=1;startSize=26;horizontalStack=0;resizeParent=1;resizeParentMax=0;resizeLast=0;collapsible=1;marginBottom=0;" parent="WIyWlLk6GJQsqaUBKTNV-1" vertex="1">
          <mxGeometry x="-1179" y="362" width="80" height="72" as="geometry" />
        </mxCell>
        <mxCell id="idtFsPLVlB8KMN15-Iu1-46" value="+DAY  &#xa;+MONTH " style="text;strokeColor=none;fillColor=none;align=left;verticalAlign=top;spacingLeft=4;spacingRight=4;overflow=hidden;rotatable=0;points=[[0,0.5],[1,0.5]];portConstraint=eastwest;" parent="idtFsPLVlB8KMN15-Iu1-45" vertex="1">
          <mxGeometry y="26" width="80" height="38" as="geometry" />
        </mxCell>
        <mxCell id="idtFsPLVlB8KMN15-Iu1-47" value="" style="line;strokeWidth=1;fillColor=none;align=left;verticalAlign=middle;spacingTop=-1;spacingLeft=3;spacingRight=3;rotatable=0;labelPosition=right;points=[];portConstraint=eastwest;" parent="idtFsPLVlB8KMN15-Iu1-45" vertex="1">
          <mxGeometry y="64" width="80" height="8" as="geometry" />
        </mxCell>
        <mxCell id="idtFsPLVlB8KMN15-Iu1-39" value="+Performance" style="swimlane;fontStyle=1;align=center;verticalAlign=top;childLayout=stackLayout;horizontal=1;startSize=26;horizontalStack=0;resizeParent=1;resizeParentMax=0;resizeLast=0;collapsible=1;marginBottom=0;arcSize=14;" parent="WIyWlLk6GJQsqaUBKTNV-1" vertex="1">
          <mxGeometry x="-829" y="362" width="120" height="108" as="geometry" />
        </mxCell>
        <mxCell id="idtFsPLVlB8KMN15-Iu1-40" value="-bid : Integer&#xa;-clicks : Long&#xa;-impressions : Long&#xa;-cost : Long" style="text;strokeColor=none;fillColor=none;align=left;verticalAlign=top;spacingLeft=4;spacingRight=4;overflow=hidden;rotatable=0;points=[[0,0.5],[1,0.5]];portConstraint=eastwest;" parent="idtFsPLVlB8KMN15-Iu1-39" vertex="1">
          <mxGeometry y="26" width="120" height="74" as="geometry" />
        </mxCell>
        <mxCell id="idtFsPLVlB8KMN15-Iu1-41" value="" style="line;strokeWidth=1;fillColor=none;align=left;verticalAlign=middle;spacingTop=-1;spacingLeft=3;spacingRight=3;rotatable=0;labelPosition=right;points=[];portConstraint=eastwest;" parent="idtFsPLVlB8KMN15-Iu1-39" vertex="1">
          <mxGeometry y="100" width="120" height="8" as="geometry" />
        </mxCell>
      </root>
    </mxGraphModel>
  </diagram>
</mxfile>
